<svg width="75" height="75" viewBox="0 0 75 75" fill="none" xmlns="http://www.w3.org/2000/svg">
<path fill-rule="evenodd" clip-rule="evenodd" d="M74.9344 42.2464C74.4836 38.2446 71.6347 35.0224 67.6735 34.0321C66.8643 33.8289 66.8015 33.6811 66.8347 33.0197C66.9113 31.4522 66.8547 29.8812 66.8 28.3597V28.3595L66.7978 28.2973C66.225 12.6263 53.1369 0 37.5471 0H37.2183H37.1813C37.1502 0.00310827 37.1152 0.00621655 37.0771 0.00959975L37.0771 0.00960239C37.0246 0.0142624 36.9663 0.0194442 36.9042 0.0258659C36.6049 0.0554269 36.1947 0.0923782 35.7845 0.107159C24.6474 0.550574 14.1052 8.25861 10.1478 18.8488C8.65862 22.8359 8.0674 27.1481 8.22999 32.8349C8.25216 33.6183 8.22629 33.7919 7.37641 33.9989C2.97921 35.0742 -0.25403 39.2533 0.0157147 43.5101C0.329801 48.4875 3.44479 51.9091 8.35192 52.663C8.95053 52.7553 9.11312 52.9142 9.32004 53.6163C11.5149 61.1063 15.8789 66.8522 22.2936 70.6915C27.0641 73.5441 32.3666 75 37.6691 75C41.0834 75 44.494 74.3977 47.7642 73.1783C56.0893 70.0744 62.5003 63.3308 65.3456 54.6768C65.8407 53.1729 66.14 52.4523 67.5811 52.5262C68.2874 52.563 68.9754 52.1896 69.5795 51.8618L69.5795 51.8618L69.5876 51.8574L69.776 51.754C73.3972 49.8103 75.3741 46.1669 74.9344 42.2464ZM16.4664 16.011C20.4978 9.85491 26.0738 6.08957 33.0391 4.81475C34.6908 4.51175 36.3056 4.36395 37.8834 4.36395C43.2413 4.36395 48.1817 6.09696 52.6196 9.54451C58.4431 14.0673 61.6911 20.0202 62.2749 27.2331C62.3821 28.5781 62.4043 29.9638 62.419 31.3014C62.4264 31.8963 62.4338 32.4913 62.4523 33.0825L62.456 33.1749C62.4597 33.2709 62.4634 33.415 62.456 33.5037C62.4264 33.5037 62.3784 33.5037 62.3156 33.4963C57.4602 32.9088 52.5346 31.7374 49.3752 27.2035C48.2667 25.6146 48.0745 23.7597 47.8713 21.7939L47.8639 21.72C47.7531 20.6668 47.136 20.0054 46.0201 19.7542C45.015 19.5251 44.1873 19.9869 43.7549 21.0253C41.7596 25.7957 37.8206 28.0867 32.5181 30.0599C31.3208 30.507 30.6262 30.7509 30.2714 30.6178C29.913 30.4848 29.525 29.8308 28.8673 28.7185C28.7416 28.5042 28.6049 28.2936 28.4645 28.083L28.4635 28.0815C28.1978 27.6755 27.9248 27.2584 27.707 26.7638C27.7957 26.7638 27.8844 26.7675 27.9694 26.7712L28.0822 26.7734H28.0823C28.7909 26.7876 29.465 26.8011 30.1458 26.7379C31.2432 26.6345 31.9712 26.2576 32.3111 25.6146C32.6363 24.9975 32.555 24.2363 32.0636 23.3495C30.5903 20.6902 28.9958 18.0493 27.4522 15.4926L27.4522 15.4925L27.4373 15.4678L27.3264 15.2867C26.6576 14.1782 25.4419 13.8826 24.3038 14.5514C23.2322 15.1796 22.9255 16.3214 23.5352 17.393C24.2485 18.6501 24.972 19.8769 25.7346 21.1701L25.7347 21.1702L25.841 21.3504C25.9175 21.4802 25.994 21.6105 26.0707 21.7411C26.2014 21.9638 26.3327 22.1874 26.4654 22.4109C26.2622 22.4216 26.0453 22.4083 25.8146 22.394L25.7892 22.3925C25.5306 22.374 25.2608 22.3555 24.9874 22.374C24.8248 22.3851 24.6585 22.3851 24.4922 22.3851L24.4802 22.3852C23.6324 22.3925 22.5788 22.4017 21.9241 23.5638C21.2479 24.761 21.8576 25.7255 22.3047 26.4276L22.3518 26.5022L22.3519 26.5023C22.4172 26.6056 22.4816 26.7075 22.5412 26.8118C23.3651 28.2545 24.2532 29.687 25.115 31.0769L25.115 31.077L25.2313 31.2645L25.5047 31.7042C25.5971 31.852 25.6488 31.9518 25.6747 32.0146C25.6119 32.0368 25.5158 32.0663 25.3606 32.0922C20.956 32.9088 17.0022 33.3818 13.2701 33.5444L13.2147 33.5481L13.2044 33.5485C13.0138 33.556 12.6742 33.5693 12.6198 33.5185C12.6198 33.5185 12.5422 33.4372 12.5348 33.0788C12.4203 28.1014 12.7639 21.6682 16.4664 16.011ZM69.2181 46.832C68.2019 47.8556 66.7054 48.421 65.0056 48.421H64.9354C62.8587 48.421 62.1678 49.4851 61.7724 51.0851C59.2375 61.3243 52.7378 67.728 42.4506 70.1224C36.3979 71.5303 29.9943 70.3848 24.422 66.8966C18.798 63.3788 14.763 57.8177 13.3551 51.6394C12.7085 48.8163 12.4979 48.6353 9.57501 48.4468C6.51914 48.251 4.39814 46.1115 4.40923 43.2478C4.42031 40.3434 6.72607 38.1189 9.77455 38.0746C17.9962 37.96 25.283 36.9069 32.0599 34.8524C37.4474 33.2192 41.475 30.9393 44.6602 27.7061C47.7494 33.9878 53.4066 36.1199 58.0477 37.2728C60.165 37.7975 62.3969 38.0598 64.8726 38.0709C68.1649 38.0857 70.5779 40.2658 70.6148 43.2552C70.6259 44.663 70.1419 45.9009 69.2181 46.832ZM51.2782 44.1587C48.8284 45.7291 46.4376 45.7402 43.9693 44.1956C42.724 43.4159 41.5785 43.6339 40.8284 44.7905C40.1152 45.8917 40.4256 47.0593 41.6598 47.9129C43.3004 49.0436 45.1923 49.6681 47.3134 49.7642C49.7374 49.7383 51.8547 49.088 53.6062 47.8279C54.7997 46.9706 55.0694 45.7956 54.323 44.6834C53.6209 43.6303 52.4237 43.4233 51.2782 44.1587ZM29.8941 44.1818C30.574 43.7754 31.2428 43.6534 31.8303 43.8234C32.185 43.9269 32.6876 44.1966 33.0386 44.9024C33.6113 46.0479 33.2492 47.1971 32.0705 47.9804C30.3929 49.0963 28.4677 49.6876 26.1841 49.791H26.1509L26.1176 49.7873C24.514 49.6765 22.1454 49.3402 20.1204 47.7181C19.0858 46.8904 18.8678 45.8003 19.5292 44.7287C19.8507 44.2077 20.3348 43.8603 20.8964 43.7458C21.4729 43.6276 22.0973 43.768 22.611 44.1301C24.9093 45.756 27.2262 45.7707 29.8941 44.1818Z" fill="#4A5A79"/>
</svg>
