<svg width="50" height="48" viewBox="0 0 50 48" fill="none" xmlns="http://www.w3.org/2000/svg">
<path fill-rule="evenodd" clip-rule="evenodd" d="M2.08333 0C0.93274 0 0 0.934375 0 2.08698C0 3.23959 0.93274 4.17397 2.08333 4.17397H8.70899L10.4416 12.8455C10.4508 12.9049 10.4625 12.9635 10.4766 13.0211L13.9569 30.4401C14.243 31.8806 15.0255 33.1746 16.1677 34.0956C17.3046 35.0124 18.7258 35.5016 20.1847 35.4787H40.3986C41.8575 35.5016 43.2787 35.0124 44.4157 34.0956C45.5583 33.1742 46.341 31.8795 46.6268 30.4383L49.9631 12.9129C50.0794 12.3019 49.9176 11.6708 49.5218 11.1916C49.1261 10.7123 48.5375 10.4349 47.9166 10.4349H14.2092L12.4595 1.6774C12.2646 0.702031 11.4096 0 10.4167 0H2.08333ZM18.0434 29.6251L15.0432 14.6089H45.3985L42.5386 29.6318C42.4422 30.1096 42.182 30.5385 41.8029 30.8442C41.422 31.1514 40.9454 31.3145 40.4566 31.3051L40.4166 31.3048H20.1667L20.1267 31.3051C19.6379 31.3145 19.1613 31.1514 18.7804 30.8442C18.3996 30.5371 18.1387 30.1055 18.0434 29.6251ZM14.583 43.826C14.583 41.5208 16.4485 39.6521 18.7497 39.6521C21.0509 39.6521 22.9163 41.5208 22.9163 43.826C22.9163 46.1312 21.0509 48 18.7497 48C16.4485 48 14.583 46.1312 14.583 43.826ZM37.5 43.826C37.5 41.5208 39.3655 39.6521 41.6667 39.6521C43.9678 39.6521 45.8333 41.5208 45.8333 43.826C45.8333 46.1312 43.9678 48 41.6667 48C39.3655 48 37.5 46.1312 37.5 43.826Z" fill="#151C32"/>
</svg>
