<svg width="25" height="25" viewBox="0 0 25 25" fill="none" xmlns="http://www.w3.org/2000/svg">
<path fill-rule="evenodd" clip-rule="evenodd" d="M3.75 2.5C3.41848 2.5 3.10054 2.6317 2.86612 2.86612C2.6317 3.10054 2.5 3.41848 2.5 3.75V21.25C2.5 21.5815 2.6317 21.8995 2.86612 22.1339C3.10054 22.3683 3.41848 22.5 3.75 22.5H8.75C9.44036 22.5 10 23.0596 10 23.75C10 24.4404 9.44036 25 8.75 25H3.75C2.75544 25 1.80161 24.6049 1.09835 23.9017C0.395088 23.1984 0 22.2446 0 21.25V3.75C0 2.75544 0.395088 1.80161 1.09835 1.09835C1.80161 0.395088 2.75544 0 3.75 0H8.75C9.44036 0 10 0.559644 10 1.25C10 1.94036 9.44036 2.5 8.75 2.5H3.75ZM16.3766 5.36612C16.8787 4.87796 17.6927 4.87796 18.1949 5.36612L24.0179 11.0274C24.5774 11.1612 25 11.7696 25 12.5C25 13.2304 24.5774 13.8388 24.0179 13.9726L18.1949 19.6339C17.6927 20.122 16.8787 20.122 16.3766 19.6339C15.8745 19.1457 15.8745 18.3543 16.3766 17.8661L20.3532 14H9.21429C8.54365 14 8 13.3284 8 12.5C8 11.6716 8.54365 11 9.21429 11H20.3532L16.3766 7.13388C15.8745 6.64573 15.8745 5.85427 16.3766 5.36612Z" fill="#151C32"/>
</svg>
