<svg width="401" height="84" viewBox="0 0 401 84" fill="none" xmlns="http://www.w3.org/2000/svg">
<path d="M293.245 54.6256H21.2738C9.52386 54.6256 0 45.0627 0 33.2646V21.3505C0 9.56291 9.52386 0 21.2738 0H293.245C304.995 0 314.518 9.56292 314.518 21.361V33.2751C314.518 45.0627 304.995 54.6256 293.245 54.6256Z" fill="#C8A391"/>
<path d="M27.7528 33.201C26.5977 32.5789 25.6947 31.7144 25.0437 30.6178C24.3927 29.5213 24.0566 28.2666 24.0566 26.8854C24.0566 25.5043 24.3822 24.2496 25.0437 23.1531C25.7052 22.0565 26.6082 21.192 27.7528 20.5699C28.9078 19.9479 30.1994 19.6421 31.6379 19.6421C32.8455 19.6421 33.9375 19.853 34.9246 20.2852C35.9116 20.7175 36.7201 21.329 37.3921 22.1303L35.3131 24.0493C34.368 22.9527 33.2025 22.4045 31.8059 22.4045C30.9449 22.4045 30.1679 22.5943 29.4958 22.9738C28.8133 23.3534 28.2883 23.8806 27.9103 24.5659C27.5323 25.2512 27.3433 26.0209 27.3433 26.8854C27.3433 27.75 27.5323 28.5302 27.9103 29.205C28.2883 29.8798 28.8133 30.4175 29.4958 30.7971C30.1784 31.1766 30.9449 31.3664 31.8059 31.3664C33.2025 31.3664 34.368 30.8076 35.3131 29.7006L37.3816 31.63C36.7201 32.4419 35.8906 33.0639 34.9036 33.4962C33.9165 33.9285 32.8245 34.1393 31.6064 34.1393C30.1994 34.1288 28.9078 33.823 27.7528 33.201Z" fill="white"/>
<path d="M41.0255 33.3384C40.133 32.864 39.4295 32.2103 38.9255 31.3668C38.4214 30.5233 38.1694 29.5744 38.1694 28.499C38.1694 27.4236 38.4214 26.4746 38.9255 25.6312C39.4295 24.7877 40.133 24.134 41.0255 23.6595C41.9181 23.1851 42.9366 22.9531 44.0707 22.9531C45.2047 22.9531 46.2127 23.1956 47.1053 23.6595C47.9978 24.134 48.6908 24.7877 49.2054 25.6312C49.7094 26.4746 49.9614 27.4236 49.9614 28.499C49.9614 29.5744 49.7094 30.5233 49.2054 31.3668C48.7013 32.2103 47.9978 32.864 47.1053 33.3384C46.2127 33.8129 45.2047 34.0448 44.0707 34.0448C42.9366 34.0448 41.9181 33.8129 41.0255 33.3384ZM46.0342 30.6815C46.5488 30.1438 46.8008 29.4163 46.8008 28.5095C46.8008 27.6028 46.5488 26.8753 46.0342 26.3376C45.5197 25.7999 44.8687 25.5257 44.0707 25.5257C43.2726 25.5257 42.6111 25.7999 42.0966 26.3376C41.5821 26.8753 41.3196 27.6028 41.3196 28.5095C41.3196 29.4163 41.5821 30.1438 42.0966 30.6815C42.6111 31.2192 43.2726 31.4933 44.0707 31.4933C44.8687 31.4933 45.5197 31.2192 46.0342 30.6815Z" fill="white"/>
<path d="M68.9774 24.1445C69.765 24.9353 70.164 26.1267 70.164 27.7188V33.8867H67.0558V28.1932C67.0558 27.3392 66.8773 26.6961 66.5308 26.2849C66.1843 25.8737 65.6803 25.6523 65.0293 25.6523C64.2942 25.6523 63.7167 25.8947 63.2967 26.3587C62.8767 26.8226 62.6562 27.5395 62.6562 28.4674V33.8762H59.5481V28.1827C59.5481 26.4852 58.8655 25.6417 57.511 25.6417C56.797 25.6417 56.2194 25.8842 55.7994 26.3481C55.3794 26.812 55.1589 27.529 55.1589 28.4568V33.8656H52.0508V23.1113H55.0224V24.3554C55.4214 23.902 55.9149 23.5541 56.4924 23.3116C57.07 23.0691 57.7105 22.9531 58.393 22.9531C59.149 22.9531 59.8316 23.1007 60.4511 23.4065C61.0601 23.7017 61.5536 24.1445 61.9317 24.7139C62.3727 24.1551 62.9292 23.7228 63.6012 23.417C64.2732 23.1113 65.0083 22.9531 65.8063 22.9531C67.1188 22.9531 68.1794 23.3538 68.9774 24.1445Z" fill="white"/>
<path d="M83.772 23.1111V33.8865H80.8214V32.6002C80.4118 33.0642 79.9183 33.4226 79.3408 33.6757C78.7738 33.9182 78.1543 34.0447 77.4822 34.0447C76.0752 34.0447 74.9516 33.6335 74.1326 32.8217C73.3031 32.0098 72.8936 30.7973 72.8936 29.1947V23.1006H76.0017V28.7308C76.0017 30.4705 76.7262 31.335 78.1753 31.335C78.9208 31.335 79.5193 31.0925 79.9708 30.6075C80.4223 30.1225 80.6534 29.395 80.6534 28.4356V23.1111H83.772Z" fill="white"/>
<path d="M96.4045 24.1551C97.2236 24.9564 97.6331 26.1478 97.6331 27.7188V33.8867H94.525V28.1932C94.525 27.3392 94.336 26.6961 93.9684 26.2849C93.6009 25.8737 93.0549 25.6523 92.3514 25.6523C91.5638 25.6523 90.9443 25.8948 90.4718 26.3797C90.0098 26.8647 89.7683 27.5922 89.7683 28.5517V33.8762H86.6602V23.1113H89.6318V24.3765C90.0413 23.9231 90.5558 23.5752 91.1648 23.3221C91.7739 23.0796 92.4459 22.9531 93.1809 22.9531C94.5145 22.9531 95.5855 23.3538 96.4045 24.1551Z" fill="white"/>
<path d="M102.883 18.8516H106.233L102.621 21.7405H100.185L102.883 18.8516ZM100.447 23.1111H103.555V33.8865H100.447V23.1111Z" fill="white"/>
<path d="M108.553 33.3384C107.64 32.864 106.926 32.2103 106.422 31.3668C105.918 30.5233 105.655 29.5744 105.655 28.499C105.655 27.4236 105.907 26.4746 106.422 25.6312C106.936 24.7877 107.65 24.134 108.553 23.6595C109.467 23.1851 110.496 22.9531 111.641 22.9531C112.775 22.9531 113.762 23.1956 114.602 23.6595C115.442 24.134 116.061 24.8088 116.45 25.6944L114.035 26.9913C113.478 26.0002 112.67 25.5046 111.62 25.5046C110.811 25.5046 110.139 25.7682 109.603 26.3059C109.068 26.8437 108.805 27.5712 108.805 28.4884C108.805 29.4057 109.068 30.1332 109.603 30.6709C110.139 31.2087 110.811 31.4722 111.62 31.4722C112.68 31.4722 113.489 30.9767 114.035 29.9856L116.45 31.3035C116.061 32.1576 115.452 32.8218 114.602 33.3068C113.762 33.7918 112.764 34.0238 111.641 34.0238C110.496 34.0554 109.467 33.8129 108.553 33.3384Z" fill="white"/>
<path d="M126.404 24.1445C127.297 24.9353 127.738 26.1372 127.738 27.7399V33.8867H124.829V32.5477C124.241 33.5493 123.149 34.0448 121.553 34.0448C120.724 34.0448 120.01 33.9078 119.411 33.6231C118.802 33.3384 118.34 32.9589 118.025 32.4633C117.71 31.9678 117.542 31.409 117.542 30.7764C117.542 29.7747 117.92 28.984 118.666 28.4146C119.422 27.8453 120.577 27.5501 122.152 27.5501H124.63C124.63 26.8647 124.42 26.3481 124.01 25.9791C123.601 25.6101 122.981 25.4308 122.152 25.4308C121.585 25.4308 121.018 25.5257 120.461 25.705C119.905 25.8842 119.443 26.1267 119.054 26.4325L117.941 24.25C118.529 23.8388 119.233 23.5119 120.041 23.2905C120.86 23.0586 121.7 22.9531 122.561 22.9531C124.231 22.9531 125.512 23.3538 126.404 24.1445ZM123.748 31.5777C124.157 31.3352 124.451 30.9662 124.63 30.4812V29.3846H122.498C121.217 29.3846 120.587 29.8064 120.587 30.6498C120.587 31.0505 120.745 31.3668 121.06 31.5988C121.375 31.8307 121.805 31.9467 122.351 31.9467C122.866 31.9467 123.338 31.8202 123.748 31.5777Z" fill="white"/>
<path d="M137.472 33.3699C137.167 33.6019 136.789 33.7706 136.348 33.876C135.907 33.992 135.435 34.0447 134.941 34.0447C133.66 34.0447 132.673 33.7179 131.98 33.0642C131.287 32.4105 130.93 31.451 130.93 30.1753V25.747H129.271V23.3431H130.93V20.7178H134.038V23.3431H136.716V25.747H134.038V30.1331C134.038 30.5865 134.154 30.9344 134.385 31.1874C134.616 31.4299 134.952 31.5565 135.372 31.5565C135.865 31.5565 136.285 31.4194 136.632 31.1558L137.472 33.3699Z" fill="white"/>
<path d="M149.348 29.3846H141.231C141.378 30.0489 141.724 30.576 142.27 30.9662C142.816 31.3563 143.499 31.546 144.308 31.546C144.864 31.546 145.358 31.4617 145.799 31.293C146.229 31.1243 146.628 30.8607 147.006 30.5022L148.665 32.3052C147.657 33.4649 146.177 34.0448 144.234 34.0448C143.026 34.0448 141.955 33.8129 141.021 33.3384C140.086 32.864 139.372 32.2103 138.868 31.3668C138.364 30.5233 138.112 29.5744 138.112 28.499C138.112 27.4446 138.364 26.4957 138.858 25.6417C139.362 24.7982 140.044 24.134 140.916 23.6595C141.787 23.1851 142.764 22.9531 143.835 22.9531C144.885 22.9531 145.841 23.1851 146.691 23.6384C147.542 24.0918 148.214 24.7455 148.697 25.589C149.18 26.4325 149.421 27.4235 149.421 28.5412C149.411 28.5833 149.39 28.868 149.348 29.3846ZM142.06 25.9158C141.577 26.3165 141.294 26.8647 141.178 27.5606H146.46C146.355 26.8753 146.061 26.3376 145.578 25.9264C145.095 25.5152 144.518 25.3149 143.825 25.3149C143.131 25.3149 142.543 25.5152 142.06 25.9158Z" fill="white"/>
<path d="M159.228 33.3384C158.315 32.864 157.601 32.2103 157.097 31.3668C156.593 30.5233 156.33 29.5744 156.33 28.499C156.33 27.4236 156.582 26.4746 157.097 25.6312C157.611 24.7877 158.325 24.134 159.228 23.6595C160.142 23.1851 161.171 22.9531 162.315 22.9531C163.449 22.9531 164.436 23.1956 165.276 23.6595C166.116 24.134 166.736 24.8088 167.124 25.6944L164.709 26.9913C164.153 26.0002 163.344 25.5046 162.294 25.5046C161.486 25.5046 160.814 25.7682 160.278 26.3059C159.743 26.8437 159.48 27.5712 159.48 28.4884C159.48 29.4057 159.743 30.1332 160.278 30.6709C160.814 31.2087 161.486 31.4722 162.294 31.4722C163.355 31.4722 164.163 30.9767 164.709 29.9856L167.124 31.3035C166.736 32.1576 166.127 32.8218 165.276 33.3068C164.436 33.7918 163.439 34.0238 162.315 34.0238C161.171 34.0554 160.142 33.8129 159.228 33.3384Z" fill="white"/>
<path d="M170.842 33.3384C169.949 32.864 169.246 32.2103 168.742 31.3668C168.238 30.5233 167.986 29.5744 167.986 28.499C167.986 27.4236 168.238 26.4746 168.742 25.6312C169.246 24.7877 169.949 24.134 170.842 23.6595C171.734 23.1851 172.753 22.9531 173.887 22.9531C175.021 22.9531 176.029 23.1956 176.922 23.6595C177.814 24.134 178.507 24.7877 179.022 25.6312C179.526 26.4746 179.778 27.4236 179.778 28.499C179.778 29.5744 179.526 30.5233 179.022 31.3668C178.518 32.2103 177.814 32.864 176.922 33.3384C176.029 33.8129 175.021 34.0448 173.887 34.0448C172.753 34.0448 171.745 33.8129 170.842 33.3384ZM175.851 30.6815C176.365 30.1438 176.617 29.4163 176.617 28.5095C176.617 27.6028 176.365 26.8753 175.851 26.3376C175.336 25.7999 174.685 25.5257 173.887 25.5257C173.089 25.5257 172.428 25.7999 171.913 26.3376C171.398 26.8753 171.136 27.6028 171.136 28.5095C171.136 29.4163 171.398 30.1438 171.913 30.6815C172.428 31.2192 173.089 31.4933 173.887 31.4933C174.685 31.4933 175.336 31.2192 175.851 30.6815Z" fill="white"/>
<path d="M191.59 24.1551C192.409 24.9564 192.819 26.1478 192.819 27.7188V33.8867H189.711V28.1932C189.711 27.3392 189.522 26.6961 189.154 26.2849C188.786 25.8737 188.24 25.6523 187.537 25.6523C186.749 25.6523 186.13 25.8948 185.657 26.3797C185.195 26.8647 184.954 27.5922 184.954 28.5517V33.8762H181.846V23.1113H184.817V24.3765C185.227 23.9231 185.741 23.5752 186.35 23.3221C186.959 23.0796 187.631 22.9531 188.366 22.9531C189.7 22.9531 190.771 23.3538 191.59 24.1551Z" fill="white"/>
<path d="M211.027 24.1551C211.846 24.9564 212.256 26.1478 212.256 27.7188V33.8867H209.148V28.1932C209.148 27.3392 208.958 26.6961 208.591 26.2849C208.223 25.8737 207.677 25.6523 206.974 25.6523C206.186 25.6523 205.567 25.8948 205.094 26.3797C204.632 26.8647 204.391 27.5922 204.391 28.5517V33.8762H201.283V23.1113H204.254V24.3765C204.664 23.9231 205.178 23.5752 205.787 23.3221C206.396 23.0796 207.068 22.9531 207.803 22.9531C209.137 22.9531 210.208 23.3538 211.027 24.1551Z" fill="white"/>
<path d="M217.253 33.3384C216.361 32.864 215.657 32.2103 215.153 31.3668C214.649 30.5233 214.397 29.5744 214.397 28.499C214.397 27.4236 214.649 26.4746 215.153 25.6312C215.657 24.7877 216.361 24.134 217.253 23.6595C218.146 23.1851 219.164 22.9531 220.298 22.9531C221.432 22.9531 222.44 23.1956 223.333 23.6595C224.225 24.134 224.918 24.7877 225.433 25.6312C225.937 26.4746 226.189 27.4236 226.189 28.499C226.189 29.5744 225.937 30.5233 225.433 31.3668C224.929 32.2103 224.225 32.864 223.333 33.3384C222.44 33.8129 221.432 34.0448 220.298 34.0448C219.164 34.0448 218.146 33.8129 217.253 33.3384ZM222.251 30.6815C222.766 30.1438 223.018 29.4163 223.018 28.5095C223.018 27.6028 222.766 26.8753 222.251 26.3376C221.737 25.7999 221.086 25.5257 220.288 25.5257C219.49 25.5257 218.828 25.7999 218.314 26.3376C217.799 26.8753 217.537 27.6028 217.537 28.5095C217.537 29.4163 217.799 30.1438 218.314 30.6815C218.828 31.2192 219.49 31.4933 220.288 31.4933C221.086 31.4933 221.747 31.2192 222.251 30.6815Z" fill="white"/>
<path d="M229.245 33.7178C228.394 33.4964 227.712 33.2223 227.208 32.8849L228.247 30.6391C228.73 30.9449 229.308 31.1979 229.98 31.3877C230.662 31.5775 231.324 31.6829 231.975 31.6829C233.287 31.6829 233.949 31.3561 233.949 30.7024C233.949 30.3966 233.77 30.1752 233.413 30.0381C233.056 29.9011 232.5 29.7956 231.754 29.7007C230.872 29.5637 230.148 29.4161 229.581 29.2368C229.014 29.0681 228.51 28.7518 228.09 28.3195C227.67 27.8767 227.46 27.2547 227.46 26.4323C227.46 25.7469 227.659 25.146 228.048 24.6188C228.436 24.0916 229.014 23.6804 229.759 23.3852C230.515 23.09 231.397 22.9424 232.426 22.9424C233.182 22.9424 233.938 23.0267 234.694 23.1954C235.45 23.3641 236.07 23.5961 236.563 23.8913L235.524 26.116C234.579 25.5782 233.55 25.3147 232.426 25.3147C231.765 25.3147 231.261 25.4096 230.935 25.5993C230.599 25.7891 230.431 26.0316 230.431 26.3163C230.431 26.6537 230.61 26.8856 230.967 27.0227C231.324 27.1598 231.901 27.2863 232.678 27.4023C233.56 27.5499 234.274 27.708 234.831 27.8767C235.387 28.0454 235.87 28.3512 236.29 28.7835C236.7 29.2263 236.91 29.8378 236.91 30.6286C236.91 31.2928 236.71 31.8938 236.311 32.4104C235.912 32.927 235.335 33.3382 234.568 33.6229C233.802 33.9076 232.899 34.0552 231.849 34.0552C230.967 34.0552 230.095 33.9392 229.245 33.7178Z" fill="white"/>
<path d="M240.911 33.3384C240.018 32.864 239.315 32.2103 238.811 31.3668C238.307 30.5233 238.055 29.5744 238.055 28.499C238.055 27.4236 238.307 26.4746 238.811 25.6312C239.315 24.7877 240.018 24.134 240.911 23.6595C241.803 23.1851 242.822 22.9531 243.956 22.9531C245.09 22.9531 246.098 23.1956 246.991 23.6595C247.883 24.134 248.576 24.7877 249.091 25.6312C249.595 26.4746 249.847 27.4236 249.847 28.499C249.847 29.5744 249.595 30.5233 249.091 31.3668C248.587 32.2103 247.883 32.864 246.991 33.3384C246.098 33.8129 245.09 34.0448 243.956 34.0448C242.822 34.0448 241.803 33.8129 240.911 33.3384ZM245.919 30.6815C246.434 30.1438 246.686 29.4163 246.686 28.5095C246.686 27.6028 246.434 26.8753 245.919 26.3376C245.405 25.7999 244.754 25.5257 243.956 25.5257C243.158 25.5257 242.496 25.7999 241.982 26.3376C241.467 26.8753 241.205 27.6028 241.205 28.5095C241.205 29.4163 241.467 30.1438 241.982 30.6815C242.496 31.2192 243.158 31.4933 243.956 31.4933C244.754 31.4933 245.405 31.2192 245.919 30.6815Z" fill="white"/>
<path d="M258.835 33.3699C258.531 33.6019 258.153 33.7706 257.712 33.876C257.271 33.992 256.798 34.0447 256.305 34.0447C255.023 34.0447 254.036 33.7179 253.343 33.0642C252.65 32.4105 252.293 31.451 252.293 30.1753V25.747H250.634V23.3431H252.293V20.7178H255.401V23.3431H258.079V25.747H255.401V30.1331C255.401 30.5865 255.517 30.9344 255.748 31.1874C255.979 31.4299 256.315 31.5565 256.735 31.5565C257.229 31.5565 257.649 31.4194 257.995 31.1558L258.835 33.3699Z" fill="white"/>
<path d="M265.072 23.3538C265.702 23.0902 266.437 22.9531 267.256 22.9531V25.842C266.909 25.8209 266.678 25.7999 266.552 25.7999C265.66 25.7999 264.967 26.0529 264.463 26.5484C263.959 27.0545 263.707 27.8031 263.707 28.8047V33.8972H260.599V23.1113H263.56V24.5346C263.938 24.018 264.442 23.6174 265.072 23.3538Z" fill="white"/>
<path d="M271.079 33.3384C270.186 32.864 269.483 32.2103 268.979 31.3668C268.475 30.5233 268.223 29.5744 268.223 28.499C268.223 27.4236 268.475 26.4746 268.979 25.6312C269.483 24.7877 270.186 24.134 271.079 23.6595C271.971 23.1851 272.99 22.9531 274.124 22.9531C275.258 22.9531 276.266 23.1956 277.159 23.6595C278.051 24.134 278.744 24.7877 279.259 25.6312C279.763 26.4746 280.015 27.4236 280.015 28.499C280.015 29.5744 279.763 30.5233 279.259 31.3668C278.755 32.2103 278.051 32.864 277.159 33.3384C276.266 33.8129 275.258 34.0448 274.124 34.0448C272.99 34.0448 271.971 33.8129 271.079 33.3384ZM276.087 30.6815C276.602 30.1438 276.854 29.4163 276.854 28.5095C276.854 27.6028 276.602 26.8753 276.087 26.3376C275.573 25.7999 274.922 25.5257 274.124 25.5257C273.326 25.5257 272.664 25.7999 272.15 26.3376C271.635 26.8753 271.373 27.6028 271.373 28.5095C271.373 29.4163 271.635 30.1438 272.15 30.6815C272.664 31.2192 273.326 31.4933 274.124 31.4933C274.911 31.4933 275.573 31.2192 276.087 30.6815Z" fill="white"/>
<path d="M283.081 33.7178C282.23 33.4964 281.547 33.2223 281.043 32.8849L282.083 30.6391C282.566 30.9449 283.144 31.1979 283.816 31.3877C284.498 31.5775 285.16 31.6829 285.811 31.6829C287.123 31.6829 287.785 31.3561 287.785 30.7024C287.785 30.3966 287.606 30.1752 287.249 30.0381C286.892 29.9011 286.336 29.7956 285.59 29.7007C284.708 29.5637 283.984 29.4161 283.417 29.2368C282.85 29.0681 282.346 28.7518 281.925 28.3195C281.505 27.8767 281.295 27.2547 281.295 26.4323C281.295 25.7469 281.495 25.146 281.884 24.6188C282.272 24.0916 282.85 23.6804 283.595 23.3852C284.351 23.09 285.233 22.9424 286.262 22.9424C287.018 22.9424 287.774 23.0267 288.53 23.1954C289.286 23.3641 289.906 23.5961 290.399 23.8913L289.36 26.116C288.415 25.5782 287.386 25.3147 286.262 25.3147C285.601 25.3147 285.097 25.4096 284.771 25.5993C284.435 25.7891 284.267 26.0316 284.267 26.3163C284.267 26.6537 284.446 26.8856 284.803 27.0227C285.16 27.1598 285.737 27.2863 286.514 27.4023C287.396 27.5499 288.11 27.708 288.667 27.8767C289.223 28.0454 289.706 28.3512 290.126 28.7835C290.536 29.2263 290.746 29.8378 290.746 30.6286C290.746 31.2928 290.546 31.8938 290.147 32.4104C289.748 32.927 289.171 33.3382 288.404 33.6229C287.638 33.9076 286.735 34.0552 285.685 34.0552C284.803 34.0552 283.931 33.9392 283.081 33.7178Z" fill="white"/>
<path d="M358.767 83.9998C382.092 83.9998 401 67.8936 401 48.0255C401 28.1575 382.092 12.0513 358.767 12.0513C335.443 12.0513 316.535 28.1575 316.535 48.0255C316.535 67.8936 335.443 83.9998 358.767 83.9998Z" fill="#C8A391"/>
<path d="M385.921 25.5781H331.613V70.7041H385.921V25.5781Z" fill="#4D2D13"/>
<path d="M384.85 68.7962L358.767 57.9048L332.684 68.7962C330.7 69.6291 329.303 71.411 328.925 73.488C336.57 79.9828 347.112 83.9999 358.767 83.9999C370.423 83.9999 380.965 79.9828 388.61 73.488C388.232 71.411 386.835 69.6186 384.85 68.7962Z" fill="#D9CFC3"/>
<path d="M366.527 71.9803L358.768 81.3218L351.008 71.9803V47.8779H366.527V71.9803Z" fill="#DDA57F"/>
<path d="M370.475 65.2006C370.475 65.2006 368.522 59.1698 366.527 59.3912C366.527 59.3912 366.852 60.7302 365.361 64.083C363.881 67.4359 358.767 80.0142 358.767 80.0142C358.767 80.0142 353.653 67.4359 352.173 64.083C350.692 60.7302 351.007 59.3912 351.007 59.3912C349.002 59.1698 347.059 65.2006 347.059 65.2006L351.28 66.1706L347.941 70.4091L358.767 82.9875L369.593 70.4091L366.254 66.1706L370.475 65.2006Z" fill="white"/>
<path d="M372.291 46.3595L365.844 52.2428C361.833 55.9013 355.7 55.9013 351.689 52.2428L345.242 46.3595C343.047 44.3563 341.798 41.5201 341.798 38.5363V16.9222C341.798 12.1249 345.672 8.23438 350.45 8.23438H367.072C371.85 8.23438 375.725 12.1249 375.725 16.9222V38.5363C375.735 41.5201 374.486 44.3563 372.291 46.3595Z" fill="#F4B68A"/>
<path d="M353.517 28.2353C352.624 27.8768 351.962 27.7608 351.269 27.666C350.587 27.6027 349.936 27.3286 349.127 27.2337C348.329 27.1599 347.521 27.1599 346.691 27.2126C345.862 27.2548 345.032 27.3918 344.213 27.5921L344.119 27.4024C344.833 26.8646 345.631 26.4956 346.46 26.1582C347.29 25.8419 348.172 25.6205 349.075 25.5045C349.957 25.3569 351.028 25.2093 351.952 25.7154C352.855 26.1688 353.695 27.0439 353.706 28.151L353.517 28.2353Z" fill="#734419"/>
<path d="M349.506 34.4354C350.654 34.4354 351.585 33.3025 351.585 31.9049C351.585 30.5074 350.654 29.3745 349.506 29.3745C348.358 29.3745 347.427 30.5074 347.427 31.9049C347.427 33.3025 348.358 34.4354 349.506 34.4354Z" fill="black"/>
<path d="M348.886 32.1579C349.489 32.1579 349.978 31.667 349.978 31.0614C349.978 30.4558 349.489 29.9648 348.886 29.9648C348.283 29.9648 347.794 30.4558 347.794 31.0614C347.794 31.667 348.283 32.1579 348.886 32.1579Z" fill="white"/>
<path d="M363.828 28.1302C363.838 27.0337 364.668 26.148 365.581 25.6947C366.505 25.1886 367.576 25.3256 368.458 25.4838C369.361 25.6103 370.233 25.8212 371.073 26.1375C371.902 26.4749 372.7 26.8439 373.414 27.3816L373.32 27.5714C372.501 27.3711 371.671 27.234 370.842 27.1918C370.023 27.1391 369.204 27.1391 368.406 27.2129C367.597 27.3184 366.946 27.5819 366.264 27.6452C365.571 27.7401 364.909 27.8666 364.017 28.2146L363.828 28.1302Z" fill="#734419"/>
<path d="M368.028 34.4354C369.177 34.4354 370.107 33.3025 370.107 31.9049C370.107 30.5074 369.177 29.3745 368.028 29.3745C366.88 29.3745 365.949 30.5074 365.949 31.9049C365.949 33.3025 366.88 34.4354 368.028 34.4354Z" fill="black"/>
<path d="M367.555 32.1579C368.159 32.1579 368.647 31.667 368.647 31.0614C368.647 30.4558 368.159 29.9648 367.555 29.9648C366.952 29.9648 366.463 30.4558 366.463 31.0614C366.463 31.667 366.952 32.1579 367.555 32.1579Z" fill="white"/>
<path d="M359.974 44.5356C359.26 45.0311 358.767 45.1049 358.767 45.1049C358.767 45.1049 358.273 45.0311 357.559 44.5356C356.845 44.0401 354.787 44.3353 353.559 45.4002C354.493 46.465 355.974 48.4788 358.767 48.4788C361.56 48.4788 363.04 46.465 363.975 45.4002C362.736 44.3353 360.688 44.0295 359.974 44.5356Z" fill="#A9473C"/>
<path d="M355.964 45.875C357.077 46.0332 357.896 46.4022 358.768 46.3916C359.639 46.4022 360.458 46.0226 361.571 45.875C361.088 46.7079 359.912 47.1718 358.768 47.1824C357.612 47.1718 356.436 46.7079 355.964 45.875Z" fill="white"/>
<path d="M360.563 39.9175H356.972C356.531 39.9175 356.321 40.3287 356.625 40.5817L358.421 42.0051C358.61 42.1527 358.925 42.1527 359.114 42.0051L360.909 40.5817C361.214 40.3287 361.004 39.9175 360.563 39.9175Z" fill="#F2A181"/>
<path d="M332.684 68.7963L341.704 65.0323C341.704 54.4045 341.798 31.3248 341.798 31.0191C341.798 23.0166 344.99 16.3321 351.543 12.7684C350.766 10.4277 350.146 7.74968 350.146 7.74968C350.146 7.74968 351.154 10.6702 352.635 12.2201C356.751 19.0733 374.475 26.5487 374.475 26.5487V64.4629L384.85 68.7963C385.228 68.9544 385.585 69.1653 385.921 69.3867V23.6492C385.921 22.3418 385.816 21.0661 385.606 19.8219C383.789 8.6037 377.741 5.59881 371.294 2.97349C362.043 -0.790522 354.619 1.11784 348.466 3.64827C339.278 3.86969 332.138 13.1374 331.613 23.6492V69.3867C331.949 69.1548 332.295 68.9544 332.684 68.7963Z" fill="#683B1B"/>
</svg>
