<svg width="18" height="20" viewBox="0 0 18 20" fill="none" xmlns="http://www.w3.org/2000/svg">
<path fill-rule="evenodd" clip-rule="evenodd" d="M14.4 1.8C13.4059 1.8 12.6 2.60589 12.6 3.6C12.6 3.9124 12.6796 4.20622 12.8196 4.46228C12.8288 4.47628 12.8378 4.49063 12.8463 4.50531C12.8548 4.51989 12.8629 4.53462 12.8705 4.54946C13.1881 5.06009 13.7544 5.4 14.4 5.4C15.3941 5.4 16.2 4.59411 16.2 3.6C16.2 2.60589 15.3941 1.8 14.4 1.8ZM11.8422 6.13333C12.4946 6.792 13.3997 7.2 14.4 7.2C16.3882 7.2 18 5.58822 18 3.6C18 1.61177 16.3882 0 14.4 0C12.4118 0 10.8 1.61177 10.8 3.6C10.8 3.9393 10.8469 4.26763 10.9347 4.57886L6.15771 7.36659C5.5053 6.70797 4.60029 6.3 3.6 6.3C1.61177 6.3 0 7.91178 0 9.9C0 11.8882 1.61177 13.5 3.6 13.5C4.60052 13.5 5.50571 13.0918 6.15815 12.433L10.9358 15.217C10.8474 15.5295 10.8 15.8592 10.8 16.2C10.8 18.1882 12.4118 19.8 14.4 19.8C16.3882 19.8 18 18.1882 18 16.2C18 14.2118 16.3882 12.6 14.4 12.6C13.4012 12.6 12.4974 13.0067 11.8452 13.6636L7.06547 10.8784C7.15311 10.5673 7.2 10.2391 7.2 9.9C7.2 9.56067 7.15305 9.2323 7.06529 8.92103L11.8422 6.13333ZM5.12995 8.95125C5.13743 8.96581 5.14534 8.98025 5.15369 8.99456C5.1621 9.00898 5.17086 9.02309 5.17994 9.03686C5.32024 9.29312 5.4 9.58725 5.4 9.9C5.4 10.2124 5.32039 10.5063 5.18036 10.7624C5.17103 10.7765 5.16203 10.791 5.1534 10.8058C5.14502 10.8202 5.13708 10.8347 5.12958 10.8494C4.81194 11.36 4.24567 11.7 3.6 11.7C2.60589 11.7 1.8 10.8941 1.8 9.9C1.8 8.90589 2.60589 8.1 3.6 8.1C4.24593 8.1 4.81239 8.44023 5.12995 8.95125ZM12.6 16.2C12.6 15.9073 12.6699 15.6309 12.7938 15.3866C12.816 15.3574 12.8367 15.3266 12.8556 15.2941C12.8738 15.2629 12.8898 15.2311 12.9039 15.1989C13.2269 14.7171 13.7764 14.4 14.4 14.4C15.3941 14.4 16.2 15.2059 16.2 16.2C16.2 17.1941 15.3941 18 14.4 18C13.4059 18 12.6 17.1941 12.6 16.2Z" fill="white"/>
</svg>
