<svg width="40" height="40" viewBox="0 0 40 40" fill="none" xmlns="http://www.w3.org/2000/svg">
<path d="M19.826 39.652C30.7756 39.652 39.652 30.7756 39.652 19.826C39.652 8.8764 30.7756 0 19.826 0C8.8764 0 0 8.8764 0 19.826C0 30.7756 8.8764 39.652 19.826 39.652Z" fill="#AC6A4D"/>
<path fill-rule="evenodd" clip-rule="evenodd" d="M25.8257 10.8257C24.7211 10.8257 23.8257 11.7211 23.8257 12.8257C23.8257 13.1728 23.9141 13.4993 24.0697 13.7838C24.0799 13.7993 24.0899 13.8153 24.0994 13.8316C24.1088 13.8478 24.1178 13.8641 24.1262 13.8806C24.4792 14.448 25.1083 14.8257 25.8257 14.8257C26.9303 14.8257 27.8257 13.9303 27.8257 12.8257C27.8257 11.7211 26.9303 10.8257 25.8257 10.8257ZM22.9837 15.6405C23.7086 16.3723 24.7142 16.8257 25.8257 16.8257C28.0348 16.8257 29.8257 15.0348 29.8257 12.8257C29.8257 10.6165 28.0348 8.82568 25.8257 8.82568C23.6165 8.82568 21.8257 10.6165 21.8257 12.8257C21.8257 13.2027 21.8778 13.5675 21.9753 13.9133L16.6676 17.0108C15.9427 16.279 14.9371 15.8257 13.8257 15.8257C11.6165 15.8257 9.82568 17.6165 9.82568 19.8257C9.82568 22.0348 11.6165 23.8257 13.8257 23.8257C14.9374 23.8257 15.9431 23.3722 16.6681 22.6401L21.9766 25.7335C21.8783 26.0807 21.8257 26.447 21.8257 26.8257C21.8257 29.0348 23.6165 30.8257 25.8257 30.8257C28.0348 30.8257 29.8257 29.0348 29.8257 26.8257C29.8257 24.6165 28.0348 22.8257 25.8257 22.8257C24.7159 22.8257 23.7117 23.2776 22.9871 24.0075L17.6762 20.9127C17.7736 20.5671 17.8257 20.2025 17.8257 19.8257C17.8257 19.4486 17.7735 19.0838 17.676 18.7379L22.9837 15.6405ZM15.5256 18.7715C15.5339 18.7877 15.5427 18.8037 15.552 18.8196C15.5614 18.8357 15.5711 18.8513 15.5812 18.8666C15.7371 19.1514 15.8257 19.4782 15.8257 19.8257C15.8257 20.1728 15.7372 20.4993 15.5816 20.7839C15.5713 20.7996 15.5613 20.8157 15.5517 20.8321C15.5424 20.8481 15.5335 20.8643 15.5252 20.8805C15.1723 21.448 14.5431 21.8257 13.8257 21.8257C12.7211 21.8257 11.8257 20.9303 11.8257 19.8257C11.8257 18.7211 12.7211 17.8257 13.8257 17.8257C14.5434 17.8257 15.1728 18.2037 15.5256 18.7715ZM23.8257 26.8257C23.8257 26.5005 23.9033 26.1934 24.041 25.9219C24.0657 25.8895 24.0887 25.8552 24.1097 25.8191C24.1299 25.7845 24.1477 25.7492 24.1633 25.7133C24.5222 25.178 25.1328 24.8257 25.8257 24.8257C26.9303 24.8257 27.8257 25.7211 27.8257 26.8257C27.8257 27.9303 26.9303 28.8257 25.8257 28.8257C24.7211 28.8257 23.8257 27.9303 23.8257 26.8257Z" fill="white"/>
</svg>
