<svg width="18" height="20" viewBox="0 0 18 20" fill="none" xmlns="http://www.w3.org/2000/svg">
<path fill-rule="evenodd" clip-rule="evenodd" d="M14.3998 1.8C13.4057 1.8 12.5998 2.60589 12.5998 3.6C12.5998 3.91161 12.679 4.20473 12.8183 4.46033C12.828 4.4749 12.8373 4.48983 12.8462 4.50511C12.8551 4.52034 12.8635 4.53571 12.8714 4.55123C13.1892 5.06087 13.7549 5.4 14.3998 5.4C15.3939 5.4 16.1998 4.59411 16.1998 3.6C16.1998 2.60589 15.3939 1.8 14.3998 1.8ZM11.8419 6.13324C12.4944 6.79196 13.3994 7.2 14.3998 7.2C16.388 7.2 17.9998 5.58822 17.9998 3.6C17.9998 1.61177 16.388 0 14.3998 0C12.4116 0 10.7998 1.61177 10.7998 3.6C10.7998 3.93925 10.8467 4.26755 10.9344 4.57874L6.15706 7.36672C5.5047 6.70848 4.59996 6.30078 3.6 6.30078C1.61177 6.30078 0 7.91256 0 9.90078C0 11.889 1.61177 13.5008 3.6 13.5008C4.60056 13.5008 5.50579 13.0926 6.15824 12.4336L10.9354 15.2174C10.8471 15.5296 10.7998 15.8591 10.7998 16.1996C10.7998 18.1878 12.4116 19.7996 14.3998 19.7996C16.388 19.7996 17.9998 18.1878 17.9998 16.1996C17.9998 14.2114 16.388 12.5996 14.3998 12.5996C13.4007 12.5996 12.4967 13.0066 11.8445 13.6638L7.0655 10.879C7.15312 10.568 7.2 10.2399 7.2 9.90078C7.2 9.56112 7.15296 9.23245 7.06504 8.92093L11.8419 6.13324ZM5.13242 8.95601C5.13913 8.96889 5.14619 8.98168 5.15359 8.99436C5.16116 9.00734 5.16901 9.02005 5.17712 9.03251C5.31917 9.28997 5.4 9.58594 5.4 9.90078C5.4 10.2124 5.3208 10.5056 5.18143 10.7612C5.17168 10.7759 5.16229 10.791 5.1533 10.8064C5.14455 10.8214 5.13628 10.8366 5.12848 10.8519C4.81064 11.3616 4.24493 11.7008 3.6 11.7008C2.60589 11.7008 1.8 10.8949 1.8 9.90078C1.8 8.90667 2.60589 8.10078 3.6 8.10078C4.2476 8.10078 4.81532 8.44277 5.13242 8.95601ZM12.5998 16.1996C12.5998 15.9082 12.669 15.633 12.792 15.3895C12.8148 15.3596 12.8361 15.328 12.8555 15.2947C12.8743 15.2625 12.8908 15.2297 12.9051 15.1963C13.2283 14.7158 13.7771 14.3996 14.3998 14.3996C15.3939 14.3996 16.1998 15.2055 16.1998 16.1996C16.1998 17.1937 15.3939 17.9996 14.3998 17.9996C13.4057 17.9996 12.5998 17.1937 12.5998 16.1996Z" fill="#151C32"/>
</svg>
