<svg width="73" height="75" viewBox="0 0 73 75" fill="none" xmlns="http://www.w3.org/2000/svg">
<path fill-rule="evenodd" clip-rule="evenodd" d="M62.2862 14.7689C56.2187 9.3952 49.1275 6.66522 41.1663 5.59648C41.1477 4.80483 41.5018 4.45356 41.8231 4.1347C41.9554 4.00345 42.0822 3.8777 42.1751 3.729C42.8163 2.69775 43.2288 1.56901 42.1526 0.639023C41.0501 -0.313469 39.8351 -0.17472 38.8114 0.879021C38.7069 0.986904 38.5976 1.09517 38.4871 1.20454C37.9946 1.69206 37.4798 2.20176 37.2776 2.799C36.5164 5.04148 34.9939 5.43148 32.7814 5.60023C22.169 6.41772 12.9704 10.4227 6.51667 19.1414C-2.16825 30.875 -2.09326 44.8924 6.26916 58.2235C14.5716 71.4496 31.169 77.9971 45.7938 73.6771C55.1612 70.9097 62.3349 65.1722 67.3786 56.8548C75.3848 43.6586 74.9573 25.9963 62.2862 14.7689ZM61.4537 57.6985C50.5488 72.0984 31.9527 74.7946 17.5903 63.886C7.27413 56.0485 1.25919 42.2299 6.29915 28.6513C10.2854 17.9076 18.689 12.4814 29.6389 10.5127C29.851 10.4753 30.0754 10.4793 30.2984 10.4834C30.6116 10.4891 30.922 10.4947 31.1914 10.3852C34.4539 9.0727 34.5027 10.5802 34.3452 13.3327C34.1652 16.4639 33.4339 17.3301 30.5502 15.6801C29.474 15.0651 28.2402 15.3014 27.6477 16.6064C27.0477 17.9226 27.3177 19.2576 28.6752 19.7826C33.8277 21.7851 39.0514 21.7626 44.2038 19.7451C45.4451 19.2576 45.7488 17.9676 45.2951 16.8164C44.8301 15.6389 43.6826 15.0464 42.4863 15.6051C41.3201 16.1489 40.1539 16.4489 38.7364 16.5989C38.4289 9.84144 38.9314 9.28645 45.0063 10.8164C56.0987 13.6027 64.3824 19.6889 67.3449 31.2913C69.8274 41.0112 67.3824 49.8723 61.4537 57.6985ZM59.9535 25.2737C59.0423 23.8975 57.9248 23.0575 56.3386 24.1112C54.7823 25.1462 55.4123 26.5225 56.1886 27.6699C58.1573 30.5874 59.1885 33.7636 59.3198 37.2774C59.376 38.8073 59.811 40.3111 61.7873 40.1348C63.711 39.9661 64.071 38.6198 63.726 37.0561C63.6772 32.6649 62.3048 28.8137 59.9535 25.2737ZM57.8819 46.0823C58.1659 44.6242 58.4897 42.9613 60.6849 43.0273C62.0049 43.0685 62.8561 43.826 62.6911 45.176C62.4736 47.0473 61.9861 48.8472 59.7211 49.3085C58.1949 49.0572 57.4861 47.8873 57.7636 46.661C57.8054 46.4751 57.8433 46.2806 57.8819 46.0823Z" fill="#4A5A79"/>
</svg>
