<svg width="83" height="75" viewBox="0 0 83 75" fill="none" xmlns="http://www.w3.org/2000/svg">
<path fill-rule="evenodd" clip-rule="evenodd" d="M63.0246 0.723984C69.9143 2.41806 75.7247 6.93317 78.9628 13.1094C81.4216 17.8001 82.0839 20.8663 82.04 27.3828C81.9009 32.52 79.1787 38.323 74.938 42.549C68.6484 48.8131 62.194 55.1247 55.9519 61.2278L55.8049 61.3716C51.5587 65.5237 47.1721 69.813 42.875 74.0487C42.3481 74.5682 41.77 75 41.0784 75C40.5223 75 39.8966 74.7256 39.1575 73.9974C35.5299 70.4206 31.827 66.8125 28.2231 63.3007C27.9339 63.0189 27.6453 62.7377 27.3575 62.4572L26.8933 62.005C20.5396 55.816 13.9831 49.4294 7.63228 43.0393C2.20977 37.5839 -0.475883 30.5588 0.0692957 23.2629C0.621792 15.8719 4.38682 9.23096 10.6692 4.56218C18.6639 -1.3799 31.1408 -1.48234 39.0807 4.32436C40.6101 5.44398 41.1882 5.59766 42.9225 4.39754C48.7585 0.358096 56.0873 -0.98107 63.0246 0.723984ZM71.1547 39.1316C74.8941 35.4142 76.8663 30.7564 77.0163 25.2899C77.2431 17.1708 72.45 9.97007 64.5065 6.50141C57.6387 3.5011 48.7036 5.22811 43.2555 10.6104C41.8907 11.9605 40.665 12.4252 38.7843 10.5738C34.8583 6.70631 30.2517 5.11102 22.8863 5.06712H22.7765C16.5966 5.06712 9.82397 10.1859 6.63339 17.2842C3.49404 24.2655 5.15885 33.303 10.596 38.7804C16.8125 45.0408 23.2266 51.3231 29.4284 57.3969L29.8236 57.7841C33.3557 61.2455 36.9966 64.8135 40.5662 68.3407C40.8958 68.6668 41.036 68.7122 41.052 68.7173L41.0524 68.7175C41.0498 68.7164 41.0551 68.7131 41.069 68.7044C41.1155 68.6753 41.2585 68.586 41.5285 68.3188C45.4643 64.4285 49.4739 60.4913 53.3677 56.6678L53.881 56.1639C59.5559 50.595 65.4212 44.8322 71.1547 39.1316ZM23.6957 6.54095C24.5409 6.46044 25.8124 6.33934 26.7022 7.08693C27.2181 7.51868 27.5108 8.159 27.5767 8.98957C27.7741 11.494 25.5276 11.7224 24.4472 11.8323L24.4447 11.8325L24.2763 11.8508C18.2062 12.4838 14.3168 15.6085 12.3812 21.3933C12.2202 21.8653 12.1836 22.3775 12.147 22.9191C12.1105 23.4642 12.0702 24.0241 11.9092 24.6058C11.8806 24.7074 11.8556 24.8127 11.8304 24.9191C11.8202 24.9622 11.81 25.0053 11.7995 25.0485C11.6055 25.8901 11.2177 27.5513 9.38822 27.5513C9.19064 27.5513 8.97477 27.5293 8.74426 27.489C6.37413 27.0648 6.58535 25.0207 6.6988 23.9228L6.69892 23.9216C7.11604 14.767 14.2619 7.44551 23.6873 6.54176L23.6957 6.54095Z" fill="#4A5A79"/>
</svg>
