<svg width="75" height="75" viewBox="0 0 75 75" fill="none" xmlns="http://www.w3.org/2000/svg">
<path fill-rule="evenodd" clip-rule="evenodd" d="M67.7256 29.8562C69.0622 29.5183 70.4211 29.6483 71.457 29.8005C73.5064 30.1012 74.8876 31.6569 74.8913 33.6729C74.9099 42.242 74.921 51.3755 74.8839 60.5201C74.8727 63.4347 72.827 66.093 69.7899 67.1289C68.9805 67.4036 68.7875 67.6932 68.8432 68.5286C68.9174 69.6759 68.8729 70.7526 68.7021 71.7402C68.3679 73.708 66.8865 74.948 64.8445 74.9814C64.0017 74.9926 63.1329 75 62.201 75C61.451 75 60.6602 74.9963 59.8099 74.9889C57.3966 74.9629 55.7704 73.3775 55.6702 70.9419V70.838V70.7786L55.6695 70.7512C55.6328 69.198 55.6126 68.3411 55.284 68.02C54.9573 67.6969 54.1034 67.6969 52.5514 67.6969C51.3233 67.6969 50.096 67.6979 48.8688 67.6988L48.8386 67.6988L48.8085 67.6988C47.5812 67.6997 46.354 67.7007 45.1258 67.7007L43.5525 67.7014H43.5512H43.5498C35.923 67.7051 28.0819 67.7089 20.3578 67.6672C19.7972 67.6635 19.4667 67.7378 19.3294 67.8937C19.2031 68.0348 19.1697 68.3318 19.2254 68.7996C19.3219 69.5571 19.2811 70.333 19.2365 71.0644C19.088 73.4184 17.4693 74.9554 15.1154 74.9814C13.3295 75 11.681 75 10.0808 74.9777C7.98679 74.948 6.64647 73.8453 6.20094 71.7847C6.05614 71.1201 6.09698 70.4333 6.13783 69.7724L6.13895 69.7528C6.18311 68.9841 6.2247 68.2601 5.96331 67.6821C5.74797 67.2106 5.16507 67.0064 4.48934 66.7725L4.48285 66.7702C3.8867 66.5628 3.21403 66.3289 2.71462 65.8443C0.835948 64.0176 -0.025419 62.1463 0.000570493 59.9558C0.0376984 56.9298 0.0302719 53.8482 0.0228463 50.8669C0.0191335 49.7307 0.0154362 48.5946 0.0154362 47.4585L0.00800333 47.0872V43.2445C0.00429054 40.1814 0.00429416 37.1184 0.0117197 34.0553C0.0191453 31.4638 1.27406 30.0529 3.85073 29.7337L3.95842 29.7188L3.97135 29.7171C4.31713 29.673 4.70561 29.6234 5.07597 29.7114C6.91752 30.1458 7.69719 29.6631 8.53999 27.5542C10.5338 22.5717 14.6438 19.9096 20.4284 19.8613C25.849 19.8168 31.344 19.8205 36.7646 19.8762C37.4181 19.8873 37.574 19.8131 37.6074 19.7685C37.6371 19.7314 37.6891 19.5717 37.5035 18.8849C36.0221 13.3528 38.725 7.04479 44.0751 3.53991C51.4896 -1.3127 61.2988 -1.16419 68.4867 3.91119C72.6413 6.8443 75.0027 11.2105 74.9618 15.8887C74.921 20.5742 72.478 24.907 68.2602 27.777C68.1229 27.8698 67.9744 27.9589 67.8221 28.0443C67.113 28.4527 66.7863 28.6792 67.0907 29.4366C67.2838 29.9193 67.3135 29.9601 67.7256 29.8562ZM47.1345 5.49655C43.3734 7.47176 40.8524 10.8541 40.3883 14.5446C39.9539 18.0161 41.3314 21.3836 44.2645 24.0234C45.2261 24.8885 45.1667 25.8278 44.981 26.6298C44.6959 27.8547 44.4135 29.0825 44.1118 30.3946L43.9786 30.9737L43.7595 31.9316C44.0334 31.7908 44.3031 31.651 44.5698 31.5128L44.5724 31.5114C44.811 31.3877 45.0472 31.2653 45.2818 31.1445C46.9897 30.2646 48.601 29.4292 50.1604 28.553C51.0997 28.0221 52.0019 27.8698 53.0824 28.0518C57.3446 28.7683 61.4213 28.0518 65.2009 25.9206C69.2107 23.6558 71.6129 20.1064 71.7948 16.182C71.9656 12.4692 70.0535 8.94574 66.5449 6.51757C63.2628 4.24534 59.7728 3.10552 56.2011 3.10552C53.216 3.10552 50.1715 3.90377 47.1345 5.49655ZM20.5769 23.1137C14.7107 23.1175 10.6934 27.0382 10.5783 32.871C10.5161 36.0179 10.5203 39.1215 10.5247 42.3626C10.5253 42.7963 10.5259 43.2324 10.5263 43.6715C10.5338 45.1157 10.5412 46.5749 10.5412 48.0488C11.5622 47.5365 12.6723 47.1207 13.9161 47.1207H13.9235C16.9123 47.1244 19.9011 47.1207 22.8899 47.1169C23.9277 47.1169 24.9663 47.116 26.005 47.1151C27.0436 47.1142 28.0823 47.1132 29.12 47.1132C29.7015 47.1132 30.283 47.1142 30.8641 47.1151H30.8655H30.8669C31.4461 47.116 32.0248 47.1169 32.6026 47.1169C34.2882 47.1207 35.7919 47.7444 36.9503 48.9214C37.4144 49.3929 37.4961 49.3446 38.0233 48.8285C39.1074 47.763 40.4589 47.1949 41.9254 47.1838C46.6592 47.1466 52.2655 47.1058 57.935 47.0798C58.1763 47.0798 58.4176 47.0761 58.6589 47.0724H58.659C60.545 47.0464 62.4906 47.0204 64.4064 47.9783C64.4064 47.4854 64.4073 46.9963 64.4082 46.5099C64.4092 46.0291 64.4101 45.5511 64.4101 45.0749L64.4102 45.0033C64.4139 42.2787 64.4173 39.7056 64.3989 37.0961C64.3965 36.8002 64.3973 36.5059 64.3981 36.2111V36.2107V36.2082C64.3985 36.0601 64.3989 35.9119 64.3989 35.7632L64.3991 35.6913C64.4028 34.0578 64.4066 32.3716 64.1725 30.7287C64.1056 30.2534 64.0017 30.1272 63.946 30.0938C63.9051 30.0715 63.7678 30.0307 63.3816 30.1829C60.1812 31.4341 56.6986 31.7868 52.7408 31.2596C52.1541 31.1816 51.7198 31.3376 51.2037 31.616C48.924 32.8524 46.5961 34.0813 44.3424 35.2694L42.913 36.0231C42.8128 36.0751 42.7125 36.1345 42.6123 36.1939C42.0405 36.5318 41.2645 36.9884 40.3809 36.283C39.5564 35.6249 39.7628 34.779 39.9149 34.1559L39.9168 34.1482C39.9391 34.0591 39.9613 33.9699 39.9799 33.8846C40.069 33.465 40.1544 33.0455 40.2361 32.6222C40.4626 31.4564 40.7002 30.2497 41.116 29.1173C41.9254 26.9119 41.6321 25.4639 40.1099 24.1236C39.3933 23.4887 38.9329 23.084 38.0381 23.084H38.0084C34.1496 23.1257 30.2322 23.1219 26.4236 23.1182H26.4233L25.6374 23.1175C23.9518 23.1137 22.2662 23.1137 20.5769 23.1137ZM62.9324 57.0115C63.6489 57.0152 64.0202 56.993 64.2616 56.4212C64.8816 54.9435 64.7776 53.3953 63.9608 52.17C63.1849 50.9968 61.8705 50.3248 60.3594 50.3211C58.2543 50.3174 56.1454 50.3174 54.0365 50.3174H49.4438H44.8474C42.3487 50.3174 40.7447 50.4733 39.9613 51.2641C39.1742 52.0587 39.0369 53.6069 39.0554 56.1873C39.0554 56.4435 39.074 56.7999 39.1928 56.915C39.2856 57.0041 39.5047 57.0449 39.876 57.0375C42.6568 56.993 45.4823 57.0004 48.2149 57.0078L48.2181 57.0078C49.2529 57.0115 50.2877 57.0152 51.3225 57.0152H54.3892C55.0874 57.0152 55.7853 57.0155 56.483 57.0157H56.4834H56.4837C58.5763 57.0164 60.6679 57.0171 62.7616 57.0115H62.9324ZM32.714 57.019C34.355 57.019 35.2572 57.019 35.584 56.6811C35.907 56.3432 35.881 55.4484 35.829 53.8222C35.7622 51.6985 34.4998 50.3693 32.5395 50.3508C29.4207 50.3211 26.4245 50.3062 23.51 50.3062C20.2167 50.3062 17.0274 50.3248 13.8975 50.3619C11.9186 50.3879 10.6674 51.6762 10.5597 53.8111C10.545 54.1273 10.5486 54.4435 10.5522 54.7741V54.7742L10.5523 54.7839C10.5523 54.8543 10.5533 54.9239 10.5542 54.9934L10.5542 54.9936C10.5551 55.0632 10.556 55.1329 10.556 55.2034C10.5597 56.9076 10.66 57.0115 12.3419 57.0152C14.3101 57.0208 16.2763 57.0201 18.2435 57.0194C18.8999 57.0192 19.5563 57.019 20.213 57.019H32.714ZM15.1673 71.8107C15.6797 71.7996 15.9396 71.5471 16.0398 70.9642C16.2886 69.5051 16.3629 68.5806 16.025 68.1759C15.6871 67.7786 14.796 67.7007 13.3703 67.7007H12.7429C10.7454 67.7007 9.65012 67.7007 9.31226 68.0794C9.01152 68.4172 9.11176 69.3269 9.28255 70.8343C9.38279 71.7365 9.84689 71.8478 10.1848 71.8553C11.7473 71.8913 13.3413 71.854 14.8854 71.8178L15.03 71.8144L15.1673 71.8107ZM63.7566 71.8775C65.5313 71.859 65.6019 71.7884 65.613 69.9877L65.6133 69.9453V69.9452C65.6206 68.827 65.625 68.1508 65.3977 67.9271C65.1712 67.7007 64.4621 67.7007 63.2888 67.7007H62.1973C60.3854 67.7007 59.3904 67.7007 59.0637 68.0385C58.7778 68.3355 58.8038 69.1227 58.8483 70.4296L58.852 70.4964C58.8892 71.5323 59.3013 71.911 60.3149 71.885C60.9832 71.8701 61.6589 71.8738 62.3123 71.8775C62.795 71.8813 63.274 71.8813 63.7566 71.8775ZM66.7825 64.4445C69.8419 64.4408 71.754 62.6438 71.7725 59.7553C71.8245 51.2901 71.8022 42.747 71.7725 34.486V34.4859C71.7688 33.0083 71.7687 32.9786 69.077 32.9267C68.4941 32.9081 68.108 33.0083 67.8964 33.2163C67.6736 33.4353 67.5771 33.8326 67.5808 34.5083C67.6216 39.8881 67.6142 45.3571 67.6068 50.6478L67.6031 55.0772C67.5994 58.7788 66.144 60.2194 62.4052 60.2194H12.4793C8.74792 60.2194 7.2925 58.764 7.2925 55.0289V44.9041V34.7793V34.7791C7.28878 32.9898 7.28871 32.9526 5.21334 32.9526C4.25916 32.9564 3.63539 32.9935 3.39035 33.2088C3.16016 33.4093 3.11561 33.9291 3.11561 34.7533V35.8041C3.11189 43.5118 3.10819 51.2196 3.11932 58.9273C3.12675 62.7441 4.84206 64.4482 8.68851 64.4482H29.2128H37.4218H45.6345C47.3964 64.4482 49.158 64.4485 50.9195 64.4487H50.9391H50.9395C56.2205 64.4494 61.5005 64.4501 66.7825 64.4445ZM50.2242 16.5314C50.1945 18.7034 48.3418 20.5635 46.1735 20.5895C46.155 20.5895 46.1401 20.5895 46.1141 20.5932C45.0448 20.5932 44.035 20.17 43.2664 19.4014C42.4719 18.6069 42.0412 17.5562 42.056 16.4386C42.0709 15.3322 42.5239 14.2963 43.3332 13.5241C44.1352 12.7592 45.1785 12.3546 46.2589 12.3954C48.4383 12.4734 50.2539 14.3669 50.2242 16.5314ZM45.5275 15.8631C45.3864 16.0042 45.3122 16.2196 45.3122 16.5055C45.3122 16.9139 45.4495 17.17 46.1698 17.3408C46.8678 17.196 46.9569 16.8062 46.9643 16.5203C46.9681 16.2307 46.8938 15.9894 46.749 15.8409C46.6265 15.7146 46.452 15.6478 46.2292 15.6441H46.2032C45.9916 15.6441 45.7094 15.6849 45.5275 15.8631ZM56.0786 20.5982H56.1046C58.2172 20.5982 60.0959 18.7084 60.1293 16.5401C60.1479 15.4486 59.7432 14.4239 58.9895 13.6479C58.2172 12.8533 57.1702 12.4078 56.0378 12.393C55.039 12.3781 54.0106 12.8051 53.2421 13.5625C52.4587 14.3347 52.0057 15.3743 52.002 16.4176C51.9946 18.7047 53.825 20.5834 56.0786 20.5982ZM56.1529 15.6416H56.1789C56.5427 15.6416 56.7878 15.7939 56.8843 16.4919C56.7135 17.2159 56.4425 17.3532 56.0749 17.3384C55.4994 17.3161 55.2173 16.9968 55.2395 16.3916C55.2544 15.9053 55.5625 15.6528 56.1529 15.6416ZM65.9808 20.5942H65.8955C64.8002 20.5645 63.7829 20.1116 63.0217 19.317C62.2606 18.5151 61.8596 17.4643 61.893 16.3579C61.9599 14.1451 63.8126 12.3778 65.9994 12.3927C67.1095 12.4038 68.138 12.8493 68.888 13.6439C69.6714 14.4718 70.0723 15.582 70.0204 16.7738C69.9313 18.7972 68.0192 20.5942 65.9808 20.5942ZM66.8162 16.4285C66.7902 16.1909 66.6529 15.6488 65.9177 15.6191C65.2866 15.7973 65.1157 15.9867 65.1343 16.4656C65.1529 17.0151 65.4314 17.3084 65.9363 17.3121C66.2073 17.3158 66.4821 17.2156 66.638 17.0411C66.7828 16.8851 66.8422 16.6735 66.8162 16.4285Z" fill="#4A5A79"/>
</svg>
