<svg width="45" height="75" viewBox="0 0 45 75" fill="none" xmlns="http://www.w3.org/2000/svg">
<path d="M43.8712 56.0924C41.7793 53.2211 39.6801 50.28 37.647 47.4381C36 45.133 34.2942 42.7471 32.6067 40.4126C32.2207 39.8795 32.217 39.6846 32.581 39.1846C33.6802 37.6589 34.728 36.0634 35.739 34.523L36.489 33.3796C39.1617 29.3319 40.3823 25.3283 40.2205 21.1189C39.8234 15.4389 37.5661 10.6412 33.5074 6.86186C33.0515 6.43907 32.7097 5.89497 32.3972 5.38027C30.5553 2.32152 27.0921 0.321567 23.1363 0.0348087C19.3129 -0.244597 15.7321 1.17081 13.5557 3.82149C11.916 5.81776 10.5337 7.47214 9.19916 9.02725C4.16986 14.8874 3.15885 23.7548 6.73598 30.5929C8.18447 33.3612 9.96016 35.9641 11.6734 38.4788L12.1329 39.1552C12.541 39.7545 12.5778 39.8942 12.1586 40.4604C9.11827 44.5669 6.09629 48.7874 3.17724 52.8718C2.39784 53.9637 1.61477 55.0556 0.8317 56.1475C0.225096 56.9967 -0.370471 58.0224 0.287602 59.4783C1.39052 61.9157 2.47871 64.4157 3.53016 66.8311C4.43455 68.9045 5.36469 71.0516 6.30584 73.1544C6.67348 73.9743 7.21022 74.9228 8.12564 74.9963C8.1624 75 8.20284 75 8.2396 75C9.10356 75 9.75429 74.1949 10.2763 73.3971L12.541 69.9523C15.6769 65.1841 18.9232 60.2503 22.0555 55.3607C22.2062 55.1291 22.3128 54.9784 22.39 54.8865C22.4672 54.9821 22.5775 55.1365 22.7356 55.3791C25.4892 59.6695 28.3311 64.0003 31.0773 68.1877C32.2207 69.9303 33.3641 71.6729 34.5037 73.4155C34.5515 73.489 34.5956 73.5625 34.6434 73.6397C34.9486 74.1434 35.4632 74.9853 36.5515 74.9044C37.8455 74.8088 38.3456 73.6361 38.511 73.25C38.9411 72.2427 39.3676 71.2317 39.7941 70.2244C41.2205 66.8568 42.6947 63.3716 44.2425 59.9967C44.9263 58.5224 44.816 57.3901 43.8712 56.0924ZM17.1365 5.5016C18.6328 4.3178 20.5482 3.70752 22.4672 3.70752C23.9231 3.70752 25.3826 4.05678 26.6693 4.76999C28.8568 5.9832 29.945 7.83978 29.9744 10.4169C24.1363 6.86186 19.7173 7.70007 14.8056 10.4169C14.6071 8.58241 15.4123 6.86186 17.1365 5.5016ZM29.173 15.2367C28.1803 18.1631 26.423 20.5748 24.5591 23.1225C24.0517 23.8174 23.5261 24.5379 23.0224 25.2622L22.7283 25.6886C22.6253 25.8357 22.5261 25.9827 22.4231 26.1298C21.8827 25.3761 21.3239 24.6298 20.7798 23.9056C18.6769 21.1005 16.688 18.4498 15.5777 15.2036L15.5262 15.0565C15.3461 14.5455 15.3461 14.5455 15.585 14.3617C17.5556 12.847 19.8349 11.9647 22.368 11.7478C24.7834 11.8176 26.9083 12.6742 29.0443 14.4389C29.3421 14.6889 29.3531 14.6962 29.173 15.2367ZM9.16606 27.0232C7.47492 22.1225 8.12933 17.4021 11.155 12.6411C11.8057 17.8763 14.7652 21.924 17.6365 25.8504L18.1034 26.4901C19.1585 27.9349 19.7394 28.7327 19.743 29.3099C19.743 29.8907 19.1622 30.6848 18.1034 32.1333C17.221 33.3392 16.3497 34.5561 15.4564 35.7987C15.2725 36.056 15.085 36.3134 14.9012 36.5744C14.2652 35.5377 13.5704 34.545 12.8976 33.5745C11.4013 31.4348 9.98957 29.4128 9.16606 27.0232ZM15.324 59.0114C13.0814 62.4231 10.8388 65.8384 8.60359 69.2538C8.29477 68.5406 7.98961 67.831 7.68815 67.1289C6.41612 64.1694 5.21027 61.3753 3.94927 58.5555C3.83162 58.2982 3.85735 58.2283 4.19558 57.835C4.29852 57.7173 4.39779 57.5997 4.48235 57.482C5.83158 55.5777 7.22494 53.6586 8.57417 51.802C11.0116 48.4455 13.5373 44.9713 15.8828 41.4603C18.0078 38.2803 20.3423 35.1627 22.5959 32.148C25.1988 28.6702 27.8899 25.0784 30.2906 21.3505C32.1361 18.4866 33.1692 15.7881 33.6214 12.5713C34.4523 13.6338 34.9523 14.8653 35.4265 16.1337C37.3198 21.2402 36.75 26.1886 33.7353 30.8466C27.6436 40.2581 21.379 49.7947 15.324 59.0114ZM40.8602 58.4599C39.544 61.4121 38.2757 64.3532 36.9338 67.4708C36.6801 68.059 36.4265 68.6509 36.1655 69.2501L35.2868 67.8899C34.1251 66.0884 33.0184 64.3789 31.9008 62.6731C29.6435 59.2246 27.3053 55.6879 24.9635 52.1549C24.5811 51.5777 24.5922 51.4454 24.8165 51.1182C26.4157 48.7653 28.0737 46.2396 30.0369 43.1662C30.0369 43.1625 30.0406 43.1588 30.0443 43.1551C32.4339 46.5264 34.8787 49.9381 37.2426 53.2395C38.397 54.8497 39.5477 56.46 40.6984 58.0702L40.761 58.1585C40.8124 58.232 40.8859 58.3276 40.897 58.3533C40.897 58.357 40.8933 58.3864 40.8602 58.4599Z" fill="#4A5A79"/>
</svg>
