<svg width="129" height="70" viewBox="0 0 129 70" fill="none" xmlns="http://www.w3.org/2000/svg">
<path d="M22.1572 22.5681C18.9689 22.5681 16.9757 21.7059 16.8393 21.6457C16.5466 21.5134 16.3701 21.2086 16.4022 20.8918C16.4343 20.5709 16.6709 20.3102 16.9837 20.2421C19.5624 19.6846 21.5476 18.6138 22.8831 17.0617C23.978 15.7864 24.752 14.1662 22.1973 11.796C21.4353 11.0861 18.9528 8.55151 19.1173 5.71209C19.1975 4.32046 19.8953 3.13335 21.1907 2.18287C22.3377 1.34067 23.5569 1.03587 24.8081 1.28452C26.5647 1.62942 27.9564 3.00101 28.7264 3.94748C30.3546 1.68156 33.559 -1.0977 37.2286 0.446333C39.7191 1.49708 41.1027 3.6467 41.1268 6.50216C41.1629 11.0901 37.365 17.6553 30.2584 20.7795C27.1342 22.1551 24.359 22.5681 22.1572 22.5681ZM19.8873 20.8998C22.065 21.2206 25.5461 21.2286 29.6608 19.4199C36.1859 16.5484 39.671 10.6289 39.6429 6.51018C39.6309 4.93807 39.1015 2.8446 36.6511 1.8099C32.6005 0.0974214 29.4402 5.55969 29.4082 5.61584C29.2798 5.84444 29.0392 5.9848 28.7745 5.98881C28.4978 6.00887 28.2652 5.86048 28.1288 5.63589C28.1128 5.61183 26.5647 3.12934 24.5154 2.73231C23.6772 2.56788 22.8751 2.78043 22.065 3.37398C21.1305 4.05977 20.6493 4.84984 20.5971 5.7923C20.4969 7.53285 21.8765 9.46991 23.204 10.7051C25.8228 13.1355 26.0915 15.5979 24.0061 18.0243C22.9553 19.2515 21.5757 20.214 19.8873 20.8998Z" fill="#151C32"/>
<path d="M25.2939 70C25.2217 70 25.1455 70 25.0733 70C10.1584 69.7273 1.06663 52.2135 0.0800481 35.8668C-0.385167 28.1346 1.17892 22.933 4.7322 20.4024C8.89107 17.4386 14.4696 19.0549 17.4254 20.2821C17.8024 20.4385 17.9828 20.8756 17.8264 21.2526C17.67 21.6296 17.2329 21.8101 16.8559 21.6537C14.1849 20.5468 9.16779 19.0669 5.59446 21.6136C2.48634 23.8233 1.12678 28.5918 1.56393 35.7746C2.5104 51.4555 11.0808 68.2594 25.1014 68.5081C25.1616 68.5081 25.2257 68.5081 25.2899 68.5081C36.5914 68.5081 45.6952 50.1922 47.2673 36.9496C47.9852 30.8938 47.2272 26.4061 45.0776 23.9637C43.7903 22.5039 42.0056 21.7579 39.7637 21.7419H39.6996C36.6997 21.7419 32.2641 23.2177 29.529 26.0612C27.7243 27.9341 26.866 30.1398 26.9783 32.6103C27.1508 36.4603 28.3499 39.6447 29.3124 42.2074C30.1546 44.4412 30.8765 46.3702 30.7041 48.0907C30.295 52.1213 22.9037 51.652 22.0615 51.5839C21.6524 51.5518 21.3476 51.1948 21.3797 50.7858C21.4118 50.3767 21.7727 50.0799 22.1778 50.104C23.9384 50.2444 29.0036 50.1401 29.2242 47.9423C29.3646 46.5668 28.6948 44.7861 27.9208 42.7287C26.9222 40.0698 25.6789 36.7611 25.4944 32.6745C25.3661 29.819 26.3928 27.1761 28.4582 25.0265C31.6505 21.7138 36.5714 20.27 39.7758 20.254C42.4548 20.2741 44.6124 21.1884 46.1885 22.9771C48.663 25.7804 49.5212 30.5409 48.7392 37.1181C47.139 50.6294 37.8828 70 25.2939 70Z" fill="#151C32"/>
<path d="M36.9365 34.8366C33.1306 34.8366 30.5679 32.0613 30.4516 31.933C30.1789 31.6282 30.1989 31.163 30.5037 30.8863C30.8085 30.6136 31.2737 30.6336 31.5505 30.9344C31.5745 30.9625 34.2295 33.8179 37.863 33.2845C41.4323 32.7632 42.1542 30.3288 42.1622 30.3048C42.2705 29.9117 42.6755 29.6751 43.0766 29.7914C43.4696 29.8997 43.7022 30.3128 43.5899 30.7058C43.5498 30.8422 42.5873 34.0947 38.0755 34.7524C37.6865 34.8085 37.3055 34.8366 36.9365 34.8366Z" fill="#151C32"/>
<path d="M23.1242 58.6952C22.9919 58.6952 22.8595 58.6912 22.7192 58.6832C18.829 58.4867 16.8959 54.9294 16.8157 54.777C16.6232 54.416 16.7596 53.9668 17.1245 53.7743C17.4855 53.5818 17.9347 53.7182 18.1272 54.0791C18.1472 54.1152 19.7634 57.0469 22.7994 57.1993C25.7952 57.3637 26.858 55.3464 26.866 55.3224C27.0505 54.9574 27.4956 54.8131 27.8646 54.9975C28.2296 55.182 28.3739 55.6312 28.1894 55.9961C28.1253 56.1125 26.7657 58.6952 23.1242 58.6952Z" fill="#151C32"/>
<path d="M62.6322 62.7977C62.7646 62.9541 62.8327 63.1587 62.8327 63.4073C62.8327 63.7241 62.7164 63.9728 62.4798 64.1412C62.2432 64.3137 61.8983 64.3979 61.4371 64.3979H59.7246V60.6802H61.3288C61.7419 60.6802 62.0627 60.7644 62.2913 60.9288C62.5199 61.0973 62.6322 61.3299 62.6322 61.6347C62.6322 61.8392 62.5801 62.0157 62.4798 62.156C62.3795 62.3004 62.2392 62.4047 62.0627 62.4769C62.3114 62.537 62.4999 62.6413 62.6322 62.7977ZM60.1176 61.005V62.3525H61.3007C61.6015 62.3525 61.8341 62.2964 61.9985 62.1801C62.159 62.0638 62.2432 61.8954 62.2432 61.6788C62.2432 61.4582 62.163 61.2898 61.9985 61.1775C61.8341 61.0612 61.6015 61.005 61.3007 61.005H60.1176ZM62.183 63.9046C62.3515 63.7923 62.4397 63.6158 62.4397 63.3752C62.4397 62.91 62.1028 62.6774 61.4291 62.6774H60.1176V64.073H61.4291C61.7619 64.0771 62.0106 64.0209 62.183 63.9046Z" fill="#151C32"/>
<path d="M63.6422 60.9167C63.5901 60.8645 63.562 60.8004 63.562 60.7242C63.562 60.652 63.5901 60.5918 63.6422 60.5397C63.6944 60.4876 63.7585 60.4595 63.8387 60.4595C63.9149 60.4595 63.9831 60.4835 64.0352 60.5357C64.0874 60.5878 64.1155 60.648 64.1155 60.7202C64.1155 60.7964 64.0874 60.8645 64.0352 60.9167C63.9831 60.9688 63.9149 60.9969 63.8387 60.9969C63.7625 60.9929 63.6944 60.9688 63.6422 60.9167ZM63.6462 61.6065H64.0232V64.4018H63.6462V61.6065Z" fill="#151C32"/>
<path d="M67.508 63.1184H65.1698C65.1899 63.4072 65.3022 63.6438 65.5067 63.8243C65.7072 64.0047 65.9639 64.093 66.2727 64.093C66.4452 64.093 66.6056 64.0609 66.75 64.0007C66.8944 63.9406 67.0187 63.8483 67.127 63.728L67.3395 63.9727C67.2152 64.121 67.0588 64.2333 66.8743 64.3135C66.6898 64.3897 66.4853 64.4299 66.2607 64.4299C65.9719 64.4299 65.7193 64.3697 65.4987 64.2454C65.2781 64.1251 65.1057 63.9526 64.9814 63.7401C64.857 63.5235 64.7969 63.2788 64.7969 63.0061C64.7969 62.7334 64.857 62.4888 64.9733 62.2722C65.0936 62.0556 65.2541 61.8872 65.4626 61.7669C65.6712 61.6466 65.9038 61.5864 66.1604 61.5864C66.4171 61.5864 66.6497 61.6466 66.8583 61.7669C67.0628 61.8872 67.2232 62.0557 67.3435 62.2682C67.4598 62.4808 67.52 62.7254 67.52 63.0021L67.508 63.1184ZM65.4827 62.1639C65.2982 62.3364 65.1979 62.561 65.1698 62.8377H67.151C67.127 62.561 67.0227 62.3364 66.8422 62.1639C66.6577 61.9915 66.4331 61.9073 66.1604 61.9073C65.8917 61.9073 65.6631 61.9955 65.4827 62.1639Z" fill="#151C32"/>
<path d="M70.5445 61.8904C70.7531 62.0949 70.8533 62.3917 70.8533 62.7807V64.4009H70.4763V62.8168C70.4763 62.528 70.4042 62.3074 70.2598 62.155C70.1154 62.0026 69.9069 61.9264 69.6382 61.9264C69.3374 61.9264 69.0967 62.0147 68.9243 62.1951C68.7478 62.3756 68.6636 62.6203 68.6636 62.9371V64.4009H68.2866V61.6056H68.6476V62.1189C68.7518 61.9505 68.8922 61.8182 69.0767 61.7219C69.2572 61.6297 69.4697 61.5815 69.7103 61.5815C70.0593 61.5815 70.34 61.6858 70.5445 61.8904Z" fill="#151C32"/>
<path d="M74.3259 63.1184H71.9878C72.0079 63.4072 72.1202 63.6438 72.3207 63.8243C72.5212 64.0047 72.7779 64.093 73.0867 64.093C73.2591 64.093 73.4196 64.0609 73.5639 64.0007C73.7083 63.9406 73.8326 63.8483 73.9409 63.728L74.1535 63.9727C74.0292 64.121 73.8728 64.2333 73.6883 64.3135C73.5038 64.3897 73.2993 64.4299 73.0747 64.4299C72.7899 64.4299 72.5332 64.3697 72.3127 64.2454C72.0921 64.1251 71.9196 63.9526 71.7953 63.7401C71.671 63.5235 71.6108 63.2788 71.6108 63.0061C71.6108 62.7334 71.671 62.4888 71.7873 62.2722C71.9076 62.0556 72.068 61.8872 72.2766 61.7669C72.4851 61.6466 72.7177 61.5864 72.9744 61.5864C73.2311 61.5864 73.4637 61.6466 73.6722 61.7669C73.8768 61.8872 74.0372 62.0557 74.1575 62.2682C74.2738 62.4808 74.334 62.7254 74.334 63.0021L74.3259 63.1184ZM72.2966 62.1639C72.1122 62.3364 72.0119 62.561 71.9878 62.8377H73.969C73.9449 62.561 73.8407 62.3364 73.6602 62.1639C73.4757 61.9915 73.2511 61.9073 72.9784 61.9073C72.7057 61.9073 72.4811 61.9955 72.2966 62.1639Z" fill="#151C32"/>
<path d="M75.2001 64.3296C74.9916 64.2654 74.8311 64.1812 74.7148 64.0809L74.8833 63.7842C74.9996 63.8764 75.148 63.9526 75.3244 64.0088C75.5009 64.0689 75.6854 64.097 75.8779 64.097C76.1346 64.097 76.323 64.0569 76.4434 63.9767C76.5637 63.8965 76.6278 63.7842 76.6278 63.6398C76.6278 63.5355 76.5958 63.4553 76.5276 63.3992C76.4594 63.339 76.3752 63.2949 76.2709 63.2668C76.1666 63.2347 76.0303 63.2067 75.8618 63.1786C75.6332 63.1345 75.4528 63.0944 75.3164 63.0502C75.176 63.0061 75.0597 62.9299 74.9635 62.8257C74.8672 62.7214 74.8191 62.573 74.8191 62.3845C74.8191 62.1519 74.9154 61.9594 75.1119 61.811C75.3084 61.6626 75.5771 61.5864 75.926 61.5864C76.1065 61.5864 76.2869 61.6105 76.4674 61.6586C76.6479 61.7067 76.7963 61.7709 76.9126 61.8471L76.7482 62.1479C76.5155 61.9875 76.2428 61.9073 75.926 61.9073C75.6854 61.9073 75.5049 61.9514 75.3806 62.0356C75.2603 62.1198 75.1961 62.2321 75.1961 62.3685C75.1961 62.4727 75.2322 62.561 75.3004 62.6251C75.3685 62.6893 75.4568 62.7374 75.557 62.7655C75.6613 62.7976 75.8017 62.8257 75.9822 62.8577C76.2067 62.9019 76.3832 62.942 76.5196 62.9861C76.6559 63.0302 76.7682 63.1024 76.8645 63.2026C76.9607 63.3069 77.0088 63.4473 77.0088 63.6278C77.0088 63.8724 76.9086 64.0649 76.704 64.2093C76.4995 64.3537 76.2188 64.4258 75.8578 64.4258C75.6212 64.4258 75.4046 64.3938 75.2001 64.3296Z" fill="#151C32"/>
<path d="M79.1706 64.2285C79.0984 64.2927 79.0102 64.3408 78.9059 64.3729C78.8016 64.405 78.6934 64.425 78.5811 64.425C78.3204 64.425 78.1158 64.3529 77.9755 64.2125C77.8351 64.0721 77.7629 63.8716 77.7629 63.6109V61.9225H77.2656V61.6057H77.7629V60.9961H78.1399V61.6057H78.9901V61.9225H78.1399V63.5909C78.1399 63.7553 78.18 63.8836 78.2642 63.9719C78.3485 64.0601 78.4688 64.1002 78.6212 64.1002C78.6974 64.1002 78.7736 64.0882 78.8458 64.0641C78.9179 64.04 78.9821 64.004 79.0342 63.9598L79.1706 64.2285Z" fill="#151C32"/>
<path d="M81.6728 61.8588C81.8653 62.0433 81.9656 62.312 81.9656 62.6689V64.4014H81.6046V63.9643C81.5204 64.1087 81.3961 64.225 81.2316 64.3052C81.0672 64.3854 80.8707 64.4255 80.6461 64.4255C80.3333 64.4255 80.0886 64.3533 79.9042 64.2009C79.7197 64.0525 79.6274 63.856 79.6274 63.6113C79.6274 63.3747 79.7117 63.1822 79.8841 63.0379C80.0566 62.8935 80.3293 62.8213 80.7063 62.8213H81.5926V62.6528C81.5926 62.4122 81.5244 62.2277 81.392 62.1034C81.2557 61.9791 81.0592 61.9149 80.8025 61.9149C80.626 61.9149 80.4536 61.943 80.2932 62.0031C80.1288 62.0593 79.9884 62.1435 79.8721 62.2438L79.7036 61.963C79.844 61.8427 80.0165 61.7505 80.213 61.6863C80.4095 61.6222 80.622 61.5861 80.8386 61.5861C81.1955 61.5821 81.4763 61.6743 81.6728 61.8588ZM81.2477 63.9803C81.4001 63.8841 81.5124 63.7437 81.5886 63.5592V63.102H80.7143C80.237 63.102 79.9964 63.2705 79.9964 63.5993C79.9964 63.7637 80.0566 63.8921 80.1809 63.9843C80.3052 64.0806 80.4777 64.1247 80.7022 64.1247C80.9108 64.1287 81.0953 64.0806 81.2477 63.9803Z" fill="#151C32"/>
<path d="M83.7463 61.7259C83.9227 61.6297 84.1393 61.5815 84.396 61.5815V61.9465L84.3037 61.9425C84.011 61.9425 83.7784 62.0307 83.6139 62.2112C83.4455 62.3917 83.3653 62.6443 83.3653 62.9732V64.3969H82.9883V61.6016H83.3492V62.147C83.4375 61.9625 83.5698 61.8222 83.7463 61.7259Z" fill="#151C32"/>
<path d="M88.9446 63.1184H86.6065C86.6265 63.4072 86.7388 63.6438 86.9393 63.8243C87.1399 64.0047 87.3965 64.093 87.7054 64.093C87.8778 64.093 88.0382 64.0609 88.1826 64.0007C88.327 63.9406 88.4513 63.8483 88.5596 63.728L88.7721 63.9727C88.6478 64.121 88.4914 64.2333 88.3069 64.3135C88.1224 64.3897 87.9179 64.4299 87.6933 64.4299C87.4046 64.4299 87.1519 64.3697 86.9313 64.2454C86.7107 64.1251 86.5383 63.9526 86.414 63.7401C86.2897 63.5235 86.2295 63.2788 86.2295 63.0061C86.2295 62.7334 86.2897 62.4888 86.406 62.2722C86.5263 62.0556 86.6867 61.8872 86.8952 61.7669C87.1038 61.6466 87.3364 61.5864 87.5931 61.5864C87.8497 61.5864 88.0823 61.6466 88.2909 61.7669C88.4954 61.8872 88.6558 62.0557 88.7761 62.2682C88.8925 62.4808 88.9526 62.7254 88.9526 63.0021L88.9446 63.1184ZM86.9153 62.1639C86.7308 62.3364 86.6305 62.561 86.6065 62.8377H88.5877C88.5636 62.561 88.4593 62.3364 88.2788 62.1639C88.0944 61.9915 87.8698 61.9073 87.5971 61.9073C87.3244 61.9073 87.0998 61.9955 86.9153 62.1639Z" fill="#151C32"/>
<path d="M91.9806 61.8904C92.1891 62.0949 92.2894 62.3917 92.2894 62.7807V64.4009H91.9124V62.8168C91.9124 62.528 91.8402 62.3074 91.6958 62.155C91.5514 62.0026 91.3429 61.9264 91.0742 61.9264C90.7734 61.9264 90.5328 62.0147 90.3603 62.1951C90.1839 62.3756 90.0996 62.6203 90.0996 62.9371V64.4009H89.7227V61.6056H90.0836V62.1189C90.1879 61.9505 90.3282 61.8182 90.5127 61.7219C90.6932 61.6297 90.9057 61.5815 91.1464 61.5815C91.4953 61.5815 91.772 61.6858 91.9806 61.8904Z" fill="#151C32"/>
<path d="M97.2262 61.6064V64.4017H96.8653V63.8924C96.765 64.0609 96.6287 64.1932 96.4562 64.2895C96.2838 64.3817 96.0833 64.4298 95.8627 64.4298C95.4977 64.4298 95.209 64.3296 95.0004 64.125C94.7919 63.9205 94.6836 63.6237 94.6836 63.2307V61.6105H95.0606V63.1946C95.0606 63.4874 95.1328 63.7119 95.2771 63.8643C95.4215 64.0167 95.6301 64.0929 95.8988 64.0929C96.1915 64.0929 96.4241 64.0047 96.5966 63.8242C96.765 63.6478 96.8533 63.3951 96.8533 63.0783V61.6105H97.2262V61.6064Z" fill="#151C32"/>
<path d="M100.542 61.8904C100.751 62.0949 100.851 62.3917 100.851 62.7807V64.4009H100.474V62.8168C100.474 62.528 100.402 62.3074 100.257 62.155C100.113 62.0026 99.9045 61.9264 99.6358 61.9264C99.335 61.9264 99.0984 62.0147 98.922 62.1951C98.7455 62.3756 98.6573 62.6203 98.6573 62.9371V64.4009H98.2803V61.6056H98.6412V62.1189C98.7455 61.9505 98.8859 61.8182 99.0703 61.7219C99.2508 61.6297 99.4634 61.5815 99.704 61.5815C100.057 61.5815 100.334 61.6858 100.542 61.8904Z" fill="#151C32"/>
<path d="M103.37 64.3296C103.161 64.2654 103.001 64.1812 102.884 64.0809L103.053 63.7842C103.169 63.8764 103.317 63.9526 103.494 64.0088C103.67 64.0689 103.855 64.097 104.047 64.097C104.304 64.097 104.492 64.0569 104.613 63.9767C104.733 63.8965 104.797 63.7842 104.797 63.6398C104.797 63.5355 104.765 63.4553 104.697 63.3992C104.629 63.339 104.545 63.2949 104.44 63.2668C104.336 63.2347 104.2 63.2067 104.031 63.1786C103.803 63.1345 103.622 63.0944 103.486 63.0502C103.345 63.0061 103.229 62.9299 103.133 62.8257C103.037 62.7214 102.989 62.573 102.989 62.3845C102.989 62.1519 103.085 61.9594 103.281 61.811C103.478 61.6626 103.747 61.5864 104.095 61.5864C104.276 61.5864 104.456 61.6105 104.637 61.6586C104.817 61.7067 104.966 61.7709 105.082 61.8471L104.918 62.1479C104.685 61.9875 104.412 61.9073 104.095 61.9073C103.855 61.9073 103.674 61.9514 103.55 62.0356C103.43 62.1198 103.366 62.2321 103.366 62.3685C103.366 62.4727 103.402 62.561 103.47 62.6251C103.538 62.6893 103.626 62.7374 103.726 62.7655C103.831 62.7976 103.971 62.8257 104.152 62.8577C104.376 62.9019 104.553 62.942 104.689 62.9861C104.825 63.0302 104.938 63.1024 105.034 63.2026C105.13 63.3069 105.178 63.4473 105.178 63.6278C105.178 63.8724 105.078 64.0649 104.873 64.2093C104.669 64.3537 104.388 64.4258 104.027 64.4258C103.791 64.4258 103.574 64.3938 103.37 64.3296Z" fill="#151C32"/>
<path d="M106.282 64.2405C106.065 64.1202 105.897 63.9477 105.772 63.7352C105.648 63.5186 105.588 63.274 105.588 63.0013C105.588 62.7285 105.648 62.4839 105.772 62.2673C105.897 62.0508 106.065 61.8823 106.282 61.762C106.498 61.6417 106.739 61.5815 107.012 61.5815C107.28 61.5815 107.525 61.6417 107.742 61.762C107.958 61.8823 108.127 62.0508 108.251 62.2673C108.371 62.4839 108.435 62.7285 108.435 63.0013C108.435 63.274 108.375 63.5186 108.251 63.7352C108.127 63.9517 107.958 64.1202 107.742 64.2405C107.525 64.3608 107.284 64.425 107.012 64.425C106.739 64.425 106.498 64.3648 106.282 64.2405ZM107.545 63.9557C107.701 63.8675 107.826 63.7392 107.914 63.5707C108.002 63.4023 108.046 63.2138 108.046 63.0013C108.046 62.7887 108.002 62.6002 107.914 62.4318C107.826 62.2673 107.701 62.135 107.545 62.0468C107.389 61.9545 107.208 61.9104 107.012 61.9104C106.815 61.9104 106.635 61.9545 106.478 62.0468C106.322 62.135 106.197 62.2633 106.105 62.4318C106.013 62.6002 105.969 62.7887 105.969 63.0013C105.969 63.2138 106.013 63.4023 106.105 63.5707C106.197 63.7352 106.318 63.8675 106.478 63.9557C106.635 64.048 106.815 64.0921 107.012 64.0921C107.208 64.0921 107.385 64.044 107.545 63.9557Z" fill="#151C32"/>
<path d="M109.574 60.4595H109.197V64.4018H109.574V60.4595Z" fill="#151C32"/>
<path d="M111.042 64.2405C110.825 64.1202 110.657 63.9477 110.533 63.7352C110.408 63.5186 110.348 63.274 110.348 63.0013C110.348 62.7285 110.408 62.4839 110.533 62.2673C110.657 62.0508 110.825 61.8823 111.042 61.762C111.259 61.6417 111.499 61.5815 111.772 61.5815C112.041 61.5815 112.285 61.6417 112.498 61.762C112.714 61.8823 112.883 62.0508 113.007 62.2673C113.127 62.4839 113.192 62.7285 113.192 63.0013C113.192 63.274 113.131 63.5186 113.007 63.7352C112.887 63.9517 112.714 64.1202 112.498 64.2405C112.281 64.3608 112.041 64.425 111.772 64.425C111.499 64.425 111.259 64.3648 111.042 64.2405ZM112.301 63.9557C112.458 63.8675 112.582 63.7392 112.67 63.5707C112.758 63.4023 112.803 63.2138 112.803 63.0013C112.803 62.7887 112.758 62.6002 112.67 62.4318C112.582 62.2673 112.458 62.135 112.301 62.0468C112.145 61.9545 111.964 61.9104 111.768 61.9104C111.571 61.9104 111.391 61.9545 111.234 62.0468C111.078 62.135 110.954 62.2633 110.861 62.4318C110.769 62.6002 110.725 62.7887 110.725 63.0013C110.725 63.2138 110.769 63.4023 110.861 63.5707C110.95 63.7352 111.074 63.8675 111.234 63.9557C111.391 64.048 111.571 64.0921 111.768 64.0921C111.968 64.0921 112.145 64.044 112.301 63.9557Z" fill="#151C32"/>
<path d="M115.726 60.4595H115.349V64.4018H115.726V60.4595Z" fill="#151C32"/>
<path d="M119.295 61.6064V64.4017H118.934V63.8924C118.834 64.0609 118.698 64.1932 118.525 64.2895C118.353 64.3817 118.152 64.4298 117.932 64.4298C117.567 64.4298 117.278 64.3296 117.069 64.125C116.857 63.9205 116.752 63.6237 116.752 63.2307V61.6105H117.129V63.1946C117.129 63.4874 117.202 63.7119 117.346 63.8643C117.49 64.0167 117.699 64.0929 117.968 64.0929C118.26 64.0929 118.493 64.0047 118.661 63.8242C118.83 63.6478 118.918 63.3951 118.918 63.0783V61.6105H119.295V61.6064Z" fill="#151C32"/>
<path d="M122.941 61.6056V64.06C122.941 64.5333 122.824 64.8862 122.592 65.1148C122.359 65.3434 122.01 65.4597 121.541 65.4597C121.284 65.4597 121.036 65.4196 120.807 65.3434C120.575 65.2672 120.386 65.1629 120.242 65.0265L120.434 64.7378C120.571 64.8581 120.731 64.9544 120.927 65.0185C121.12 65.0867 121.325 65.1188 121.537 65.1188C121.89 65.1188 122.151 65.0346 122.319 64.8701C122.484 64.7057 122.568 64.449 122.568 64.1041V63.7472C122.451 63.9237 122.299 64.06 122.107 64.1523C121.918 64.2445 121.706 64.2926 121.477 64.2926C121.216 64.2926 120.976 64.2365 120.763 64.1202C120.55 64.0039 120.382 63.8435 120.258 63.6349C120.137 63.4264 120.073 63.1938 120.073 62.9291C120.073 62.6644 120.133 62.4318 120.258 62.2272C120.378 62.0227 120.546 61.8623 120.759 61.75C120.972 61.6377 121.212 61.5815 121.477 61.5815C121.714 61.5815 121.93 61.6297 122.119 61.7259C122.311 61.8222 122.463 61.9585 122.58 62.139V61.6016H122.941V61.6056ZM122.058 63.8274C122.223 63.7392 122.347 63.6189 122.439 63.4625C122.532 63.306 122.576 63.1296 122.576 62.9331C122.576 62.7366 122.532 62.5601 122.439 62.4037C122.351 62.2513 122.223 62.131 122.062 62.0428C121.902 61.9545 121.718 61.9144 121.513 61.9144C121.312 61.9144 121.128 61.9585 120.968 62.0428C120.807 62.127 120.683 62.2473 120.591 62.4037C120.498 62.5601 120.454 62.7366 120.454 62.9331C120.454 63.1296 120.498 63.3101 120.591 63.4625C120.683 63.6189 120.807 63.7392 120.968 63.8274C121.128 63.9156 121.308 63.9557 121.513 63.9557C121.714 63.9557 121.894 63.9156 122.058 63.8274Z" fill="#151C32"/>
<path d="M125.813 61.8588C126.006 62.0433 126.106 62.312 126.106 62.6689V64.4014H125.745V63.9643C125.661 64.1087 125.536 64.225 125.372 64.3052C125.207 64.3854 125.011 64.4255 124.786 64.4255C124.474 64.4255 124.225 64.3533 124.04 64.2009C123.856 64.0525 123.764 63.856 123.764 63.6113C123.764 63.3747 123.848 63.1822 124.02 63.0379C124.193 62.8935 124.466 62.8213 124.842 62.8213H125.729V62.6528C125.729 62.4122 125.661 62.2277 125.528 62.1034C125.392 61.9791 125.195 61.9149 124.939 61.9149C124.762 61.9149 124.59 61.943 124.429 62.0031C124.265 62.0593 124.125 62.1435 124.008 62.2438L123.84 61.963C123.98 61.8427 124.153 61.7505 124.349 61.6863C124.546 61.6222 124.754 61.5861 124.975 61.5861C125.34 61.5821 125.621 61.6743 125.813 61.8588ZM125.388 63.9803C125.54 63.8841 125.653 63.7437 125.729 63.5592V63.102H124.851C124.373 63.102 124.133 63.2705 124.133 63.5993C124.133 63.7637 124.193 63.8921 124.317 63.9843C124.441 64.0806 124.614 64.1247 124.838 64.1247C125.055 64.1287 125.236 64.0806 125.388 63.9803Z" fill="#151C32"/>
<path d="M127.89 61.7259C128.067 61.6297 128.283 61.5815 128.54 61.5815V61.9465L128.448 61.9425C128.155 61.9425 127.922 62.0307 127.758 62.2112C127.59 62.3917 127.509 62.6443 127.509 62.9732V64.3969H127.132V61.6016H127.493V62.147C127.581 61.9625 127.714 61.8222 127.89 61.7259Z" fill="#151C32"/>
<path d="M74.5341 25.8169V40.2506H73.0703V28.7044L67.3995 38.4138H66.6776L61.0068 28.7646V40.2506H59.543V25.8169H60.7983L67.0706 36.5169L73.2748 25.8169H74.5341Z" fill="#151C32"/>
<path d="M88.6199 38.9312V40.2506H78.4092V25.8169H88.3111V27.1363H79.9372V32.2698H84.9904V33.5692H79.9372V38.9312H88.6199Z" fill="#151C32"/>
<path d="M128.54 38.9312V40.2506H118.333V25.8169H128.231V27.1363H119.857V32.2698H124.91V33.5692H119.857V38.9312H128.54Z" fill="#151C32"/>
<path d="M103.445 25.8169V40.2506H102.186L92.9058 28.536V40.2506H91.3818V25.8169H92.6371L101.937 37.5275V25.8169H103.445Z" fill="#151C32"/>
<path d="M110.128 27.1363H105.055V25.8169H116.725V27.1363H111.652V40.2506H110.128V27.1363Z" fill="#151C32"/>
<path d="M69.8981 50.5577C70.3714 51.1191 70.608 51.841 70.608 52.7233C70.608 53.8583 70.1869 54.7326 69.3487 55.3422C68.5105 55.9518 67.2713 56.2606 65.631 56.2606H59.5391V43.022H65.25C66.7258 43.022 67.8688 43.3187 68.6829 43.9083C69.4971 44.5018 69.9021 45.34 69.9021 46.4229C69.9021 47.1528 69.7217 47.7744 69.3647 48.2877C69.0038 48.7971 68.5105 49.1781 67.8809 49.4307C68.7511 49.6232 69.4249 49.9962 69.8981 50.5577ZM60.9427 44.173V48.9775H65.1617C66.2325 48.9775 67.0587 48.773 67.6402 48.3639C68.2177 47.9549 68.5105 47.3573 68.5105 46.5753C68.5105 45.7932 68.2217 45.1997 67.6402 44.7866C67.0587 44.3775 66.2325 44.173 65.1617 44.173H60.9427ZM68.2979 54.5C68.9035 54.0949 69.2043 53.4653 69.2043 52.607C69.2043 50.9547 68.0052 50.1285 65.6109 50.1285H60.9387V55.1015H65.6109C66.798 55.1055 67.6924 54.905 68.2979 54.5Z" fill="#151C32"/>
<path d="M75.268 55.4944C74.2012 54.9089 73.371 54.1028 72.7694 53.0841C72.1719 52.0615 71.8711 50.9145 71.8711 49.6432C71.8711 48.3678 72.1719 47.2208 72.7694 46.2022C73.367 45.1795 74.2012 44.3774 75.268 43.7919C76.3348 43.2063 77.5219 42.9136 78.8333 42.9136C80.1447 42.9136 81.3278 43.2023 82.3785 43.7838C83.4333 44.3654 84.2595 45.1675 84.865 46.1941C85.4706 47.2208 85.7714 48.3718 85.7714 49.6472C85.7714 50.9225 85.4666 52.0735 84.865 53.1002C84.2595 54.1269 83.4293 54.933 82.3785 55.5105C81.3278 56.092 80.1447 56.3808 78.8333 56.3808C77.5219 56.3727 76.3348 56.08 75.268 55.4944ZM81.6727 54.4156C82.5189 53.9424 83.1806 53.2887 83.6579 52.4505C84.1351 51.6123 84.3758 50.6779 84.3758 49.6432C84.3758 48.6085 84.1351 47.674 83.6579 46.8358C83.1806 45.9976 82.5149 45.3399 81.6727 44.8707C80.8265 44.3975 79.884 44.1608 78.8333 44.1608C77.7866 44.1608 76.8361 44.3975 75.9858 44.8707C75.1356 45.3439 74.4659 45.9976 73.9806 46.8358C73.4953 47.674 73.2507 48.6085 73.2507 49.6432C73.2507 50.6779 73.4953 51.6123 73.9806 52.4505C74.4659 53.2887 75.1356 53.9464 75.9858 54.4156C76.8361 54.8889 77.7866 55.1255 78.8333 55.1255C79.88 55.1255 80.8265 54.8889 81.6727 54.4156Z" fill="#151C32"/>
<path d="M99.2236 43.022V56.2606H98.0726L89.5583 45.5165V56.2606H88.1587V43.022H89.3137L97.844 53.762V43.022H99.2236Z" fill="#151C32"/>
<path d="M104.18 43.022H102.781V56.2606H104.18V43.022Z" fill="#151C32"/>
<path d="M110.308 44.2331H105.652V43.022H116.36V44.2331H111.708V56.2606H110.308V44.2331Z" fill="#151C32"/>
<path d="M122.488 43.022H121.104L115.052 56.2606H116.508L121.786 44.4778L127.064 56.2606H128.539L122.488 43.022Z" fill="#151C32"/>
</svg>
