<svg width="17" height="17" viewBox="0 0 17 17" fill="none" xmlns="http://www.w3.org/2000/svg">
<path fill-rule="evenodd" clip-rule="evenodd" d="M8.05477 16.8156C8.30066 17.0615 8.69931 17.0615 8.9452 16.8156C9.19109 16.5697 9.19109 16.171 8.9452 15.9252L2.14958 9.12953L16.3704 9.12953C16.7181 9.12953 17 8.84764 17 8.4999C17 8.15217 16.7181 7.87027 16.3704 7.87027L2.14977 7.87027L8.9452 1.07485C9.19109 0.82896 9.19109 0.430301 8.9452 0.184415C8.69932 -0.0614727 8.30066 -0.0614727 8.05477 0.184415L0.190545 8.04864C0.0730084 8.16302 7.58573e-07 8.32294 7.43102e-07 8.4999C7.3758e-07 8.56306 0.00930096 8.62405 0.0266082 8.68158M0.0266082 8.68158C0.0555713 8.77807 0.108168 8.86898 0.184399 8.94521L8.05477 16.8156" fill="white"/>
</svg>
