<svg width="64" height="75" viewBox="0 0 64 75" fill="none" xmlns="http://www.w3.org/2000/svg">
<path fill-rule="evenodd" clip-rule="evenodd" d="M36.8076 19.6065H36.8039C34.3223 19.6065 31.9584 18.6102 30.1533 16.7977C28.2709 14.9116 27.2415 12.4117 27.2489 9.75361C27.2599 7.14333 28.2893 4.69114 30.1496 2.84556C31.9988 1.00734 34.451 0 37.0503 0H37.087C39.6201 0.0110293 42.1421 1.09925 44.0061 2.99262C45.8553 4.87128 46.8995 7.38597 46.87 9.88963C46.8075 15.3344 42.3885 19.6028 36.8076 19.6065ZM32.826 5.59554C31.6569 6.74259 31.0099 8.24625 31.0062 9.82345C31.0025 12.9925 33.6973 15.7278 36.8922 15.7903C38.4951 15.8234 40.0098 15.2315 41.1532 14.1249C42.3039 13.0109 42.9473 11.4999 42.9657 9.8786C42.9988 6.60657 40.4142 3.89335 37.201 3.83085H37.087C35.5209 3.83085 33.9731 4.47055 32.826 5.59554ZM47.8328 43.8663C52.4909 46.2192 56.7004 48.3405 61.0313 50.4766L61.0367 50.4793C61.5313 50.7247 62.043 50.9787 62.2335 51.5538C62.4136 52.0942 62.2004 52.6273 61.9945 53.0317C59.0386 58.8625 56.0423 64.8992 52.8328 71.4911C51.8181 73.5793 50.0791 74.8551 48.0681 74.9874C47.9505 74.9948 47.8365 74.9985 47.7226 74.9985C45.9909 74.9985 44.3549 74.1308 43.3917 72.6786C42.2557 70.9691 42.2079 69.05 43.2446 66.9764C43.752 65.9544 44.2593 64.9323 44.763 63.9066L44.8646 63.7005C45.9726 61.4521 47.1159 59.132 48.3181 56.8846C48.6123 56.3331 48.5718 56.1714 48.5681 56.1567C48.5571 56.1309 48.4835 55.9839 47.8696 55.7008C46.8071 55.2082 45.7593 54.653 44.7483 54.1163L44.7126 54.0973C43.1208 53.254 41.4784 52.3838 39.7961 51.778C36.9138 50.7413 34.8182 50.8847 32.9984 52.2486C27.3918 56.4471 21.6676 60.686 16.1308 64.7816C15.2357 65.4449 14.3406 66.1077 13.4456 66.7704C11.8852 67.9259 10.3253 69.0809 8.76694 70.2374C6.30372 72.0646 2.89933 71.7705 1.17876 69.5794C0.270675 68.4213 -0.133748 67.0279 0.0390452 65.6566C0.219191 64.2412 1.00596 62.9287 2.25963 61.9691C5.39564 59.5647 14.2007 53.0501 19.7191 48.9802C17.0022 49.1825 15.0978 47.7891 14.1676 44.892C13.3294 42.2818 12.5206 39.6164 11.7412 37.0392C11.6925 36.8789 11.6437 36.7183 11.5948 36.5572C11.0635 34.8071 10.5176 33.0088 9.96544 31.2414C9.71545 30.4363 9.60516 29.4252 11.0022 28.7635L13.425 27.6164L13.4941 27.5838C18.3954 25.2667 23.4664 22.8695 28.3771 20.3775C29.958 19.5761 31.48 19.7452 32.8182 19.8959C32.8529 19.8997 32.8874 19.9035 32.9218 19.9072C33.2882 19.9474 33.6378 19.9857 33.9873 20.0025C35.7851 20.0944 37.5976 20.2856 39.3513 20.4731C40.4983 20.5944 41.6895 20.7194 42.8549 20.815C43.5976 20.8775 44.5608 21.043 45.4431 21.7893C46.9402 23.0601 48.4451 24.3256 49.949 25.5904C50.229 25.8258 50.5089 26.0612 50.7887 26.2966C54.1343 29.1091 57.5901 32.0171 60.9578 34.9215C62.443 36.2009 63.2114 37.8075 63.1195 39.4472C63.0313 41.0538 62.1268 42.5244 60.5754 43.5869C58.6857 44.881 55.9872 44.5281 53.8548 42.7082C52.1122 41.223 50.3475 39.7487 48.4762 38.1899C48.024 37.8149 47.5681 37.4362 47.1012 37.0465V37.8664L47.1011 37.9163C47.0975 39.8721 47.094 41.7238 47.1123 43.5501V43.5575C47.1748 43.6016 47.3365 43.6641 47.4395 43.7009C47.5755 43.7523 47.7115 43.8038 47.8328 43.8663ZM23.0496 37.898C23.3636 38.986 23.6889 40.1132 24.083 41.1752C24.6823 42.7891 24.7521 44.256 24.2889 45.6163C24.327 45.5878 24.3571 45.5661 24.3784 45.5508C24.3982 45.5366 24.4103 45.5279 24.4139 45.5244L24.5426 45.4435C24.6823 45.3001 24.958 44.6862 24.8146 43.2119C24.6418 41.4509 24.6823 39.6605 24.7227 37.9325C24.7248 37.8241 24.7271 37.715 24.7293 37.6055C24.7424 36.9649 24.7558 36.3083 24.7558 35.6678V33.9068C24.7429 33.9123 24.73 33.9188 24.7172 33.9252C24.7043 33.9316 24.6915 33.9381 24.6786 33.9436L24.5873 33.9884C23.8391 34.3556 23.1873 34.6755 22.4948 34.9546C22.3036 35.0318 22.2411 35.087 22.2264 35.1017C22.2271 35.1017 22.2276 35.1057 22.2285 35.1144C22.2322 35.1482 22.2435 35.2523 22.311 35.4546C22.5757 36.2598 22.8146 37.0796 23.0426 37.8737L23.0496 37.898ZM52.8071 56.2853C50.6012 60.5721 48.5277 64.8184 46.6123 68.7669C46.3329 69.3404 46.263 69.8661 46.4027 70.2816C46.5203 70.6088 46.7666 70.8624 47.138 71.0389C47.4468 71.186 48.3843 71.6272 49.2152 69.9654C50.0607 68.2779 50.9063 66.5831 51.7482 64.8919L51.9597 64.4682C53.7614 60.8576 55.6189 57.1351 57.4798 53.4876C57.5975 53.2523 57.6379 53.1273 57.649 53.0721C57.6085 53.0354 57.5056 52.9618 57.2776 52.8516C54.2439 51.3701 51.176 49.8306 48.2024 48.3384L47.8696 48.1714L47.8662 48.1697C46.7938 47.6299 45.7214 47.09 44.6454 46.5538C44.6141 46.5391 44.582 46.5244 44.5498 46.5097C44.5176 46.495 44.4854 46.4803 44.4542 46.4656L44.4451 46.4614C43.9735 46.244 43.1932 45.8845 43.2042 44.7156C43.2334 41.2434 43.2299 37.8183 43.2263 34.1919L43.2262 34.1164C43.2226 32.8864 43.2226 31.6456 43.2226 30.3869V30.348V28.7525L44.9174 30.201C45.1663 30.4133 45.3605 30.5782 45.5545 30.7429L45.5571 30.7451C46.5492 31.5767 47.5413 32.4119 48.5334 33.2472L48.5571 33.2671L49.0309 33.6659C51.5257 35.7653 54.0896 37.9227 56.6306 40.0281C57.4835 40.734 58.2298 40.745 58.8475 40.0575C59.6306 39.1862 58.9761 38.2818 58.5166 37.8223C58.3622 37.6715 58.1894 37.5244 58.0019 37.37L57.8475 37.2414L53.8034 33.837C50.6122 31.1532 47.4247 28.4694 44.2409 25.7782C43.2409 24.9326 42.3108 24.5503 41.1307 24.4915C39.2642 24.4001 37.3832 24.2 35.5634 24.0063L35.5278 24.0025C34.4506 23.8885 33.3366 23.7709 32.2447 23.6753L31.9506 23.6495L31.9428 23.6488C31.2807 23.5866 30.7094 23.533 30.1491 23.804C25.1014 26.2672 19.8257 28.7929 14.4691 31.3186C14.0107 31.535 14.0132 31.5428 14.1628 32.0135L14.164 32.0171C15.1529 35.1237 16.1235 38.2928 17.061 41.359L17.8735 44.0097C18.1235 44.8148 18.4948 45.017 18.7889 45.1016C19.5058 45.3075 19.9065 45.2487 20.2815 44.8773C20.7632 44.3994 20.8698 43.8737 20.6455 43.12C20.3322 42.0697 20.0117 41.0194 19.6917 39.9711C19.6174 39.7277 19.5432 39.4845 19.4691 39.2414L19.3591 38.8805C18.9252 37.4572 18.4921 36.0362 18.0683 34.609C18.0585 34.5796 18.0438 34.5502 18.0286 34.5197C18.021 34.5045 18.0132 34.4889 18.0058 34.473C17.8845 34.2303 17.686 33.8223 17.8514 33.348C17.9654 33.0208 18.2301 32.7598 18.6308 32.5723C20.7301 31.5943 22.7889 30.6054 24.9654 29.5539C25.1906 29.4454 25.4166 29.3363 25.6435 29.2268C26.2389 28.9394 26.84 28.6492 27.447 28.3591L28.5021 27.8517V33.2046C28.4984 37.6237 28.4984 41.8001 28.5168 46.0575C28.5205 47.1935 27.7962 47.7303 27.2631 48.1236L27.2227 48.153C19.811 53.6383 12.3956 59.1236 4.98019 64.6015C4.33313 65.0794 3.93609 65.6198 3.86256 66.1198C3.81476 66.4507 3.90299 66.7595 4.13461 67.0647C4.91402 68.0978 6.28165 67.311 6.68238 67.0426C6.71223 67.0247 6.75664 66.9826 6.80377 66.9378C6.81469 66.9275 6.82575 66.917 6.83681 66.9066L6.84335 66.9004C6.92283 66.8245 7.01643 66.7351 7.13092 66.6492L7.14784 66.6367C9.6385 64.7916 12.1292 62.9466 14.6198 61.1052C15.3004 60.6013 15.9838 60.0954 16.6696 59.5877C21.3633 56.1132 26.1667 52.5575 30.8918 49.0354C32.5388 47.8075 34.3587 47.1972 36.3917 47.1972C37.9542 47.1972 39.638 47.5538 41.4616 48.2744C43.6711 49.1457 45.8071 50.2597 47.8696 51.3369C49.1453 52.006 50.4615 52.6935 51.7776 53.3111C52.3512 53.5832 52.91 53.9177 53.1195 54.528C53.3291 55.1383 53.0791 55.7596 52.8071 56.2853Z" fill="#4A5A79"/>
</svg>
