<svg width="72" height="75" viewBox="0 0 72 75" fill="none" xmlns="http://www.w3.org/2000/svg">
<path fill-rule="evenodd" clip-rule="evenodd" d="M71.7989 31.6308L71.8009 31.754C71.8595 35.2661 71.9253 39.2464 71.5046 43.1426C70.7071 50.5948 67.3779 57.8201 62.1354 63.4833C56.9002 69.1429 49.9639 73.0135 42.6068 74.3854C40.3898 74.7988 38.1729 75 35.9815 75C21.9771 75 9.01539 66.7832 3.07048 53.5032C1.08397 49.0619 0.0632545 44.3133 0.0339873 39.3891C-0.00991356 31.8198 -0.00259943 24.1226 0.00837578 16.6814L0.00841164 16.6546C0.0120581 13.9307 0.0156997 11.2104 0.0156997 8.48653C0.0156997 5.52322 0.933957 3.30258 2.82535 1.69288C4.44968 0.313663 6.40694 -0.227786 8.63856 0.0868363C15.959 1.12216 22.5661 1.99653 29.3159 2.24164C40.8252 2.66236 51.3065 2.01116 61.3525 0.258782C66.1816 -0.582651 69.2547 0.712425 71.018 4.34156C71.5485 5.43543 71.7936 6.66831 71.7936 8.22679V20.4824V25.9774V25.992C71.7362 27.7413 71.7667 29.6311 71.7989 31.6303V31.6306V31.6308ZM40.7703 70.3099C54.5113 68.4368 66.1743 56.1812 67.3194 42.4109C67.6303 38.6684 67.5938 34.9734 67.5499 31.4028L67.5463 31.0123C67.529 29.1299 67.5127 27.3467 67.5572 25.6627C67.5572 24.6671 67.5581 23.6911 67.559 22.7335L67.559 22.7187C67.5599 21.792 67.5608 20.8823 67.5608 19.9886L67.5609 19.8717V19.8669V19.8664C67.5646 15.8618 67.568 12.0778 67.5499 8.35483C67.5425 6.8366 67.1804 5.74638 66.4743 5.11348C65.7755 4.48789 64.6707 4.24645 63.189 4.4001C62.1386 4.50656 61.0675 4.67844 60.0258 4.84559L59.9294 4.86106L59.5197 4.92691C52.0785 6.11589 44.3812 6.69391 35.9998 6.69391H35.8534C26.9525 6.6866 17.8431 5.91834 8.77392 4.41474C8.34223 4.34523 7.93981 4.30864 7.56665 4.30864C6.6301 4.30864 5.88745 4.53545 5.35698 4.9891C4.63262 5.60371 4.27043 6.66099 4.27775 8.13167C4.29238 11.7023 4.25579 15.3314 4.2192 18.8398L4.21876 18.8831V18.8832C4.14207 26.428 4.06276 34.2307 4.50823 41.8768C4.95822 49.5997 8.16664 56.3385 14.042 61.9066C21.4174 68.8941 30.4061 71.7221 40.7703 70.3099ZM40.1786 42.0924C40.2887 41.2447 40.5442 39.277 42.6839 39.5071C44.7034 39.7266 44.5095 41.5887 44.4363 42.2838L44.4144 42.4997C44.0339 46.7873 40.2913 50.1347 35.883 50.1347H35.8574C31.5039 50.1238 27.7686 46.7471 27.3552 42.4484L27.3551 42.4473C27.2891 41.762 27.0893 39.6862 29.1771 39.4668C31.1912 39.2552 31.4913 41.2306 31.6054 41.9815L31.6063 41.9875C31.8112 43.3338 32.4843 44.4642 33.5014 45.1703C34.4635 45.8398 35.6598 46.0666 36.8671 45.8105C38.6377 45.4374 39.9365 43.9813 40.1779 42.0972L40.1786 42.0924ZM28.2258 34.8366C28.1234 31.1964 24.6735 28.0429 20.8248 28.0429H20.7334C17.1518 28.0905 14.0531 30.8562 13.5227 34.4744C13.2044 36.6511 14.2946 37.3206 15.2641 37.4962C15.4397 37.5291 15.6006 37.5438 15.7506 37.5438C17.3274 37.5438 17.6274 35.9121 17.7445 35.2609C18.081 33.4354 19.27 32.2574 20.7846 32.283C22.6101 32.3013 23.5942 33.2342 23.9747 35.3012L23.9754 35.3049C24.1038 35.9948 24.4024 37.5985 26.2137 37.4962C27.6002 37.4194 28.2733 36.5231 28.2258 34.8366ZM43.5873 34.7095C43.7995 31.095 47.275 27.9781 51.0139 28.0439C54.8442 28.1134 58.3599 31.4572 58.3855 35.0534C58.3965 36.4144 57.6978 37.3216 56.5161 37.479C55.6783 37.5924 54.5845 37.3619 54.1601 35.6241C53.7869 34.1132 53.1357 33.0596 52.2687 32.584C51.6102 32.2182 50.8163 32.1889 49.9127 32.4925C48.6798 32.9059 47.9993 33.7766 47.8311 35.1449C47.5969 37.0692 46.547 37.5082 45.6397 37.5082C45.5811 37.5082 45.5262 37.5082 45.4677 37.5046C44.8677 37.468 44.3922 37.2558 44.0556 36.8717C43.4793 36.2115 43.5466 35.275 43.5869 34.7147L43.5873 34.7095Z" fill="#4A5A79"/>
</svg>
