<svg width="75" height="75" viewBox="0 0 75 75" fill="none" xmlns="http://www.w3.org/2000/svg">
<path fill-rule="evenodd" clip-rule="evenodd" d="M0 37.5C0 16.824 16.824 0 37.5 0C58.176 0 75 16.824 75 37.5C75 58.176 58.176 75 37.5 75C16.824 75 0 58.176 0 37.5ZM3.41141 37.5C3.41141 56.2973 18.7027 71.5886 37.5 71.5886C56.2973 71.5886 71.5886 56.2973 71.5886 37.5C71.5886 18.7027 56.2973 3.41141 37.5 3.41141C18.7027 3.41141 3.41141 18.7027 3.41141 37.5ZM51.3088 39.5403C52.736 37.0937 53.4897 34.3194 53.4897 31.4541C53.4897 22.5852 46.2737 15.3691 37.4047 15.3691C28.5358 15.3691 21.3198 22.5852 21.3198 31.4541C21.3198 34.3194 22.0698 37.0937 23.5006 39.5403H17.5225V45.158H34.1535V40.9237L33.5055 40.6471C32.912 40.3959 32.3404 40.0827 31.8089 39.7223C29.0601 37.8582 27.4217 34.7672 27.4217 31.4541C27.4217 25.9492 31.8999 21.4711 37.4047 21.4711C42.9096 21.4711 47.3877 25.9492 47.3877 31.4541C47.3877 34.7672 45.7494 37.8582 43.0006 39.7223C42.1887 40.2757 41.3004 40.7017 40.3683 40.9893L39.622 41.2223V45.158H56.253V39.5403H51.3088ZM56.2494 47.8242H17.5225V53.4419H56.2494V47.8242Z" fill="#4A5A79"/>
</svg>
