<svg width="64" height="75" viewBox="0 0 64 75" fill="none" xmlns="http://www.w3.org/2000/svg">
<path d="M62.2543 38.2693C61.6882 37.5819 61.089 36.9166 60.5082 36.2733C60.0524 35.7696 59.5819 35.2476 59.1408 34.7257C57.119 32.351 56.6448 30.4578 57.4976 28.1897C58.8798 24.5211 57.7512 20.8855 56.7808 18.4703C53.8767 11.2507 48.2892 5.78811 40.1689 2.23709C33.666 -0.604464 26.2258 -0.744152 19.2156 1.84743C12.2386 4.42432 6.62531 9.34649 3.40513 15.7097C-2.49854 27.3773 -0.64951 40.0375 8.36039 49.5694C10.6652 52.0066 11.4923 54.6386 11.0512 58.1051C10.8858 59.3953 10.6689 60.6966 10.4557 61.9134C9.97783 64.652 10.9373 66.99 13.2311 68.6773C18.4032 72.4819 24.7885 74.5478 32.7507 75H32.7728H32.7948C39.691 74.9853 42.1245 73.4965 43.2126 68.6295C43.5508 67.1113 43.7567 66.1923 44.1096 65.9092C44.4625 65.6262 45.3925 65.6262 46.9291 65.6262H47.1901C47.3775 65.6262 47.565 65.6262 47.7525 65.6262C52.5828 65.6041 54.4686 64.0087 55.2185 59.3034C55.3471 58.5094 55.5089 57.9213 55.9353 57.4581C56.891 56.4141 57.1447 55.1569 57.3873 53.9438C57.6079 52.8447 57.8174 51.8044 58.5526 51.0471C58.9753 50.6097 58.8136 49.9554 58.696 49.4811L58.6776 49.404C58.5783 48.9886 58.4239 48.5695 58.2732 48.1651C58.0159 47.4704 57.7512 46.7535 57.8909 46.3492C57.9902 46.0588 58.6151 45.9228 59.2216 45.7904C59.7289 45.6802 60.2509 45.5662 60.7214 45.3309C62.2985 44.5406 63.2689 43.4598 63.5336 42.21C63.7174 41.3351 63.6439 39.9529 62.2543 38.2693ZM56.6227 42.618C53.726 43.8311 53.2886 44.7575 54.1634 47.8416C54.2406 48.121 54.3546 48.3967 54.4612 48.6614C54.6671 49.176 54.8803 49.7091 54.7479 49.9921C54.656 50.1906 54.3472 50.3818 53.8767 50.5362C53.4981 50.6611 53.1893 50.9773 53.0239 51.4037C52.8327 51.9 52.8695 52.4514 53.1158 52.8815C53.6635 53.8299 53.329 54.4658 52.4909 55.5944C51.5755 56.8295 51.355 58.3256 51.2226 59.6269C51.083 60.9907 50.3955 61.6046 48.9251 61.6781C48.3848 61.7075 47.8481 61.7002 47.2783 61.6928C46.26 61.6818 45.205 61.6671 44.1316 61.8656C41.6834 62.3178 40.1946 63.8396 39.5807 66.5194C38.5735 70.9233 38.522 70.9674 34.0594 71.0483C33.7763 71.052 33.4822 71.0299 33.1734 71.0042C32.872 70.9784 32.5632 70.9527 32.2471 70.9527C32.1625 70.9527 32.078 70.9527 31.9934 70.9601C31.6038 70.9784 31.3207 70.9307 31.2178 70.8277C31.1296 70.7395 31.0267 70.4822 31.0524 69.7654C31.1333 67.3613 31.1186 64.9241 31.1038 62.5677C31.0965 61.6046 31.0928 60.6452 31.0928 59.6857C31.0928 58.7557 31.0891 57.8257 31.0855 56.8957C31.0781 54.6496 31.0671 52.3301 31.1149 50.0546C31.1406 48.7754 30.9752 46.9631 29.2438 46.0257C27.8653 45.2795 26.3986 45.6103 24.884 47.0072C23.5717 48.2166 22.752 47.7277 22.1234 47.0844C21.7116 46.6616 21.4654 45.8676 21.4874 45.0074C21.5095 44.184 21.7741 43.4415 22.1785 43.0702C22.8292 42.471 23.6673 42.0225 24.9465 43.265C25.4391 43.7429 26.9353 45.2023 29.0637 44.2686C30.9017 43.4635 31.1186 41.8645 31.1002 40.5632C31.0855 39.4751 31.0891 38.3612 31.0928 37.2878C31.0965 35.9387 31.1038 34.5455 31.0708 33.167C31.0634 32.759 31.1186 32.6487 31.1112 32.645C31.1259 32.6377 31.2288 32.5936 31.545 32.6083C32.3169 32.6487 33.0926 32.6414 33.8388 32.634C34.438 32.6267 35.0592 32.623 35.6621 32.6414C35.8459 32.645 36.015 32.623 36.1657 32.6046C36.2209 32.5972 36.2907 32.5899 36.3495 32.5825C36.2907 32.6818 36.1584 32.8362 36.0701 32.9354L35.9525 33.0825C34.2542 35.0933 33.9233 37.6444 35.1107 39.5817C36.3789 41.6476 39.3161 42.6916 42.0951 42.0593C44.5617 41.5005 46.0836 40.0081 46.5063 37.7473C46.8188 36.0527 46.3409 34.4573 45.0764 33.0016C44.9955 32.9097 44.9073 32.8215 44.8154 32.7333C44.7786 32.6965 44.7345 32.6561 44.6941 32.6119C44.7161 32.6156 44.7345 32.6156 44.7529 32.6193C44.8889 32.634 45.0212 32.6414 45.1389 32.645C47.3481 32.623 49.5942 32.6266 51.7667 32.6303L52.9283 32.634C52.9908 32.634 53.0496 32.634 53.1121 32.6303C53.2297 32.6266 53.4062 32.623 53.4429 32.634C53.4429 32.634 53.476 32.6671 53.5165 32.7847C54.4906 35.6005 56.4573 37.6885 58.3578 39.7103L58.7438 40.122C59.5231 40.9528 59.6517 41.2579 59.6701 41.3535C59.6003 41.4417 59.3246 41.6549 58.1997 42.0409C57.6814 42.2174 57.1484 42.3975 56.6227 42.618ZM27.5675 57.5684V59.9651C27.5675 60.8915 27.5602 61.8178 27.5565 62.7442C27.5418 65.0013 27.5271 67.3318 27.6006 69.6293C27.6153 70.03 27.5786 70.2138 27.5528 70.2874C27.4756 70.2947 27.2845 70.2874 26.8728 70.1844C22.9137 69.2029 19.6494 68.295 16.6792 66.3356C14.3082 64.7697 14.0619 64.2293 14.4883 61.509L14.5581 61.0753C15.1206 57.5095 15.7014 53.8262 13.7531 50.2384C13.0142 48.882 12.007 47.7718 11.0328 46.7021C10.6799 46.3124 10.3123 45.9081 9.97048 45.5037C6.83852 41.8056 4.95273 37.74 4.21017 33.0751C4.17341 32.8472 4.16606 32.7075 4.16974 32.6267C4.32045 32.6119 4.55572 32.6156 4.64762 32.6156C6.1364 32.6377 7.65092 32.634 9.11029 32.6303C10.4741 32.6266 11.882 32.623 13.2642 32.6414C14.0067 32.6487 16.2785 32.6781 17.2416 30.6563C17.7305 29.627 17.9474 28.039 16.1866 26.326C15.2419 25.4033 15.2088 24.4659 16.091 23.5432C16.5174 23.0984 17.3298 22.8411 18.2158 22.8779C19.0723 22.911 19.8406 23.2234 20.2192 23.6866C21.0169 24.6681 20.9287 25.5981 19.9582 26.4546C18.7745 27.4986 18.3996 28.8955 18.9032 30.3843C19.223 31.3253 20.0758 32.4723 22.3476 32.5972C23.8106 32.6781 25.3509 32.6818 26.9316 32.6119C27.4205 32.5899 27.5344 32.6487 27.5418 32.6487C27.5418 32.6487 27.6116 32.7553 27.5969 33.1633C27.5381 34.6852 27.5492 36.2255 27.5565 37.7179C27.5602 38.6002 27.5675 39.4824 27.5602 40.3646C27.5602 40.4896 27.5712 40.622 27.5859 40.758C27.5896 40.8094 27.5969 40.8719 27.6006 40.9308C27.5491 40.8866 27.4903 40.8352 27.4462 40.7947C27.369 40.7249 27.2882 40.6514 27.2073 40.5889C24.5348 38.4458 21.7962 38.4825 19.6935 40.6918C17.4732 43.0261 17.4254 47.066 19.5943 49.5142C21.4874 51.6537 24.3951 51.7823 26.9977 49.8414C27.1301 49.7421 27.2477 49.6282 27.3543 49.5289C27.4315 49.4554 27.5418 49.3488 27.6116 49.3047C27.619 49.3929 27.6006 49.562 27.5896 49.6723C27.5749 49.8157 27.5565 49.9664 27.5602 50.1245C27.5712 52.6021 27.5712 55.1238 27.5675 57.5684ZM25.7479 4.28095C26.0457 4.24419 26.3618 4.1964 26.6816 4.09347C27.0749 3.96481 27.2992 3.94276 27.4131 3.94276C27.4867 3.94276 27.5124 3.95379 27.5124 3.95011C27.5197 3.95746 27.641 4.11921 27.6043 4.81397C27.5124 6.53067 27.5308 8.26942 27.5491 9.94936C27.5565 10.714 27.5675 11.4786 27.5639 12.2395C27.5639 13.2945 27.5565 15.4891 29.5268 16.4449C31.7398 17.5183 33.4675 15.8751 34.0336 15.3347C34.9306 14.4819 35.8091 14.4672 36.6473 15.2869C37.081 15.7133 37.3347 16.5294 37.309 17.419C37.2832 18.2902 36.9855 19.0769 36.5296 19.4665C35.6253 20.2495 34.7174 20.1981 33.9086 19.3195C32.3721 17.6543 30.8245 17.7829 29.7989 18.1873C28.3174 18.7681 27.5639 20.0694 27.5639 22.0545C27.5639 22.6573 27.5602 23.2565 27.5565 23.8594C27.5492 25.3592 27.5381 26.9105 27.5786 28.4397C27.5933 28.9653 27.5271 29.083 27.5234 29.094C27.5234 29.094 27.4205 29.1565 27.0455 29.1308C26.4868 29.0903 25.9244 29.0793 25.3656 29.0793C24.9392 29.0793 24.5164 29.0867 24.1011 29.094C23.6967 29.1014 23.2923 29.1087 22.888 29.1087H22.785C22.6417 29.1087 22.4285 29.1124 22.3072 29.0793C22.3366 29.0499 22.3733 29.0168 22.3991 28.9911C22.4873 28.9065 22.5902 28.8073 22.6821 28.6933C24.3179 26.6972 24.6819 24.2196 23.6085 22.3816C22.2006 19.9665 19.4913 18.996 16.1829 19.7202C14.0141 20.1944 12.3194 22.0949 12.0621 24.3409C11.871 26.0172 12.4224 27.5244 13.6979 28.8146C13.867 28.9874 13.9369 29.083 13.9663 29.1344C13.9332 29.1308 13.9038 29.1271 13.8744 29.1234C13.7494 29.1087 13.6208 29.0977 13.5068 29.0977C12.3599 29.1161 11.1946 29.1124 10.0624 29.1087L8.79783 29.105C8.36774 29.105 7.93765 29.0977 7.50755 29.094C6.50768 29.0793 5.47104 29.0683 4.44544 29.1271C4.16606 29.1455 4.0374 29.1197 3.98961 29.105C3.96756 29.0425 3.93815 28.8808 3.9455 28.4544C4.17709 16.5919 13.9516 5.74768 25.7479 4.28095ZM31.0891 5.60431V4.11921C40.5843 4.60444 50.2411 11.5558 53.3106 20.2312C54.3399 23.1352 54.373 25.9253 53.4209 28.7558C53.2996 29.1124 53.2996 29.1124 52.7739 29.105C52.7004 29.105 52.6269 29.1014 52.5534 29.1014L51.8439 29.105C49.7228 29.1161 47.5319 29.1234 45.3815 29.0977C43.9772 29.083 42.2495 29.2852 41.3856 31.0313C40.3086 33.2111 41.9187 34.8176 42.448 35.3469C43.3891 36.288 43.4074 37.1886 42.4995 38.1039C42.0841 38.5193 41.2202 38.7693 40.3049 38.7472C39.4925 38.7252 38.7867 38.4862 38.4632 38.1223C37.6141 37.1702 37.6582 36.2843 38.6103 35.3395C39.9042 34.0529 40.2498 32.7112 39.6616 31.2334C38.9337 29.4028 37.331 29.1381 36.0187 29.1124C35.7246 29.105 35.4305 29.0977 35.1364 29.0867C34.688 29.0719 34.2358 29.0536 33.78 29.0536C33.2617 29.0536 32.7397 29.0756 32.2214 29.1381C31.5045 29.2263 31.2803 29.1014 31.2178 29.0389C31.1149 28.9433 31.0046 28.6529 31.0561 27.8368C31.1369 26.5906 31.1186 25.3298 31.1038 24.113C31.0965 23.4918 31.0855 22.8742 31.0928 22.253C31.0928 22.1647 31.0891 22.0728 31.0891 21.9809C31.0855 21.8412 31.0781 21.6097 31.1038 21.5545C31.1038 21.5545 31.1112 21.5472 31.1443 21.5325C31.1884 21.5729 31.2435 21.6354 31.284 21.6795C31.3759 21.7824 31.4825 21.8964 31.6111 22.003C34.0777 24.0064 37.0627 23.966 39.0367 21.9037C41.2827 19.5584 41.3709 15.3347 39.2205 13.0482C37.0884 10.7765 34.2726 10.6441 31.6957 12.6917C31.5891 12.7762 31.4825 12.8755 31.3795 12.9747C31.2987 13.0519 31.181 13.1659 31.1149 13.2063C31.1075 13.2026 31.1002 13.1989 31.0891 13.1953C31.0708 13.1181 31.0781 12.9416 31.0818 12.8313C31.0855 12.7468 31.0891 12.6586 31.0891 12.5777C31.0891 10.2508 31.0891 7.92755 31.0891 5.60431Z" fill="#4A5A79"/>
</svg>
