<svg width="19" height="25" viewBox="0 0 19 25" fill="none" xmlns="http://www.w3.org/2000/svg">
<path fill-rule="evenodd" clip-rule="evenodd" d="M7.09113 2.27273C6.78975 2.27273 6.50071 2.39245 6.2876 2.60556C6.07449 2.81867 5.95477 3.10771 5.95477 3.40909V4.54545H12.7729V3.40909C12.7729 3.10771 12.6532 2.81867 12.4401 2.60556C12.227 2.39245 11.938 2.27273 11.6366 2.27273H7.09113ZM15.0457 4.54545V3.40909C15.0457 2.50494 14.6865 1.63783 14.0472 0.9985C13.4078 0.359171 12.5407 0 11.6366 0H7.09113C6.18698 0 5.31987 0.359171 4.68054 0.9985C4.04121 1.63783 3.68204 2.50494 3.68204 3.40909V4.54545H1.40931C0.781717 4.54545 0.272949 5.05422 0.272949 5.68182V21.5909C0.272949 22.4951 0.63212 23.3622 1.27145 24.0015C1.91078 24.6408 2.77789 25 3.68204 25H15.0457C15.9498 25 16.8169 24.6408 17.4563 24.0015C18.0956 23.3622 18.4548 22.4951 18.4548 21.5909V5.68182C18.4548 5.05422 17.946 4.54545 17.3184 4.54545H15.0457ZM2.54568 6.81818V21.5909C2.54568 21.8923 2.6654 22.1813 2.87851 22.3944C3.09162 22.6075 3.38066 22.7273 3.68204 22.7273H15.0457C15.3471 22.7273 15.6361 22.6075 15.8492 22.3944C16.0623 22.1813 16.182 21.8923 16.182 21.5909V6.81818H2.54568Z" fill="#151C32"/>
</svg>
