<svg width="94" height="75" viewBox="0 0 94 75" fill="none" xmlns="http://www.w3.org/2000/svg">
<path fill-rule="evenodd" clip-rule="evenodd" d="M19.4484 18.6503H19.3117C16.7441 18.6503 14.3796 17.7119 12.6396 16.0014C10.8588 14.2465 9.87243 11.823 9.86874 9.1741C9.86135 4.3381 14.1727 0.0488754 19.0974 0.000847891C21.5801 -0.0324019 23.9297 0.913367 25.6919 2.64236C27.4948 4.41198 28.4997 6.81336 28.5219 9.40315C28.5662 14.435 24.4949 18.5838 19.4484 18.6503ZM23.1982 5.34298C22.0566 4.23834 20.5087 3.62508 18.9275 3.65094C15.9276 3.71005 13.5853 6.23703 13.5964 9.40315C13.6075 12.4843 16.0532 15.0371 19.0494 15.0926C20.5899 15.1221 22.1084 14.4941 23.2388 13.371C24.3435 12.2737 24.9678 10.7959 24.9494 9.32187C24.9309 7.83302 24.3102 6.42175 23.1982 5.34298ZM87.1596 27.3263C89.0548 31.1057 91.0128 35.0107 92.9192 38.864C94.1753 41.4058 93.8539 43.7111 92.0436 45.1999C90.8318 46.1826 89.4205 46.5816 88.0758 46.3267C86.683 46.0607 85.4638 45.1149 84.6437 43.6593C84.2447 42.95 83.5427 41.6311 82.7891 40.1903C84.385 45.0078 86.4687 51.2218 87.577 54.2734C88.0093 55.4556 88.0536 56.2869 87.7211 56.9667C87.3886 57.6464 86.7051 58.1267 85.5045 58.5183C83.539 59.1611 82.4935 59.5232 82.0613 60.1475C81.629 60.7756 81.629 61.9393 81.629 64.0489V64.156C81.629 64.6813 81.6327 65.203 81.6364 65.7284V65.7295L81.6364 65.7372C81.6438 66.8862 81.6512 68.0758 81.6216 69.2469C81.5662 71.386 80.5022 73.2553 78.7695 74.2454C77.0405 75.2355 74.8867 75.206 73.0099 74.1642C72.0124 73.61 71.4804 73.61 70.531 74.1642C68.6985 75.2319 66.6112 75.2762 64.8083 74.2824C62.8872 73.2258 61.6939 71.2012 61.6089 68.8664C61.524 66.5167 61.5277 64.0119 61.6163 61.2152C61.6533 60.0737 61.4021 59.6894 60.4526 59.4271C58.96 59.0097 57.4971 58.4075 56.1116 57.6316C55.5833 57.3361 55.2878 57.506 54.7225 57.8792L54.7118 57.8862C54.4603 58.0502 54.2047 58.2169 53.9024 58.3262C53.9356 58.3927 53.9763 58.4666 54.0095 58.5183L54.0191 58.5346C54.146 58.7521 54.2874 58.9944 54.3199 59.2683C54.3937 59.8705 54.5859 60.5022 54.8592 61.0527C55.3875 62.1167 55.4725 63.0292 55.1142 63.7644C54.7595 64.4959 53.9984 64.9835 52.8569 65.22C51.7818 65.4416 51.4973 65.848 51.5897 67.0376C51.682 68.2272 51.6636 69.5388 51.5343 71.0461C51.4087 72.4906 50.7252 73.7135 49.6538 74.4006C48.6305 75.0582 47.3707 75.1691 46.1072 74.7146C45.2094 74.3895 44.5888 74.3858 43.7353 74.6925C42.4903 75.1395 41.249 75.0287 40.2404 74.3748C39.169 73.6802 38.493 72.45 38.3784 70.9944C38.323 70.2961 38.2861 69.5535 38.3637 68.8183C38.6223 66.4022 38.3341 65.1091 36.0325 64.7397C35.4562 64.6473 34.998 64.3481 34.7468 63.9011C34.455 63.3802 34.4513 62.7078 34.7357 61.9985C34.902 61.581 35.0387 61.1598 35.1828 60.7091C35.3195 60.2768 35.4598 59.8335 35.6335 59.3976L35.6556 59.3385C35.8256 58.9173 35.9992 58.4777 35.9106 58.3003C35.8773 58.2301 35.7332 58.0528 35.1015 57.8718C34.237 57.6206 33.572 57.0959 33.1841 56.3534C32.6373 55.3152 32.6373 53.915 33.1804 52.3043C33.6645 50.8733 34.1521 49.4457 34.6464 47.9984L34.6478 47.9943L34.6484 47.9924L34.7025 47.834L35.1163 46.626C32.0351 47.0693 30.8862 46.6999 29.2754 44.5793C29.2778 44.6088 29.2803 44.6416 29.2828 44.6745L29.2865 44.7233L29.2865 44.7234C29.2976 44.8896 29.3086 45.0559 29.3086 45.2147C29.3031 47.7614 29.3038 50.3102 29.3045 52.8579V52.8583V52.8586C29.3047 53.7072 29.3049 54.5557 29.3049 55.4039V55.4072C29.3049 59.6326 29.3049 63.9982 29.2902 68.2937C29.2791 71.0276 28.1634 73.2184 26.2275 74.3009C24.3323 75.3612 21.9457 75.1801 19.681 73.8021C19.2641 73.5476 19.1677 73.6098 18.8144 73.838L18.8128 73.8391L18.7792 73.86L18.7789 73.8601L18.7786 73.8603C18.6821 73.9204 18.5823 73.9824 18.4766 74.0386C17.2685 74.674 16.042 74.9954 14.8893 74.9954C13.8586 74.9954 12.8869 74.7405 12.0372 74.227C10.2824 73.1704 9.2701 71.1384 9.26641 68.6558C9.25902 62.6302 9.25902 56.6046 9.26271 50.5642V44.4795L9.26245 44.4799C9.22929 44.5315 9.19611 44.5831 9.15927 44.6347C7.63717 46.6481 5.23949 47.3796 3.05239 46.5004C0.747071 45.5768 -0.331699 43.615 0.0894648 41.1213C0.462116 38.9149 1.22168 36.808 1.95598 34.7711L1.95884 34.7632L2.05358 34.499L2.05362 34.4989C2.34202 33.6951 2.63796 32.8703 2.90092 32.0515C3.27757 30.8762 3.70689 29.7042 4.12363 28.5666L4.19766 28.3645L4.21947 28.3049C4.83336 26.6277 5.46682 24.897 5.94512 23.1664C7.16797 18.7294 9.87229 17.3994 15.292 18.5668L15.2955 18.5676C17.7769 19.103 20.1182 19.6082 22.7695 18.6186C25.0859 17.7541 27.0957 17.7097 28.7434 18.4893C30.4428 19.2946 31.7359 20.9645 32.5893 23.4546C33.0801 24.8953 33.5798 26.3317 34.0797 27.7687L34.0826 27.7768C34.2252 28.1869 34.3679 28.597 34.5104 29.0073L34.5483 29.1161L34.5484 29.1164L34.5489 29.1178C35.7006 32.4269 36.8909 35.8464 38.0016 39.2334C38.227 39.9243 38.227 39.9243 39.0397 39.71C41.4039 39.082 43.8197 39.1891 46.1543 39.2925L46.1552 39.2925L46.2966 39.2986H46.2966H46.2966C47.1173 39.3338 47.9649 39.3701 48.7893 39.3701H48.8115C49.9752 39.3664 50.4259 39.0893 50.9173 38.0697C52.7796 34.2043 54.7301 30.3071 56.6206 26.5298L56.7545 26.2623C57.3271 25.1208 57.8997 23.9792 58.4687 22.8376C60.6595 18.4412 63.7074 17.1002 68.3439 18.4893C70.6861 19.1912 72.7292 19.1986 74.9717 18.5114C79.6303 17.0817 82.7226 18.4708 84.9946 23.0112C85.3548 23.7298 85.716 24.4493 86.0771 25.1688C86.4382 25.8883 86.7994 26.6077 87.1596 27.3263ZM33.8343 43.1015C34.3404 42.95 34.6582 42.7431 34.8022 42.4661C35.0498 41.9858 34.8096 41.1915 34.5658 40.4785C33.0917 36.1745 31.6287 31.8705 30.1657 27.5665L29.268 24.9249C28.1744 21.7145 27.0366 21.1492 23.7301 22.18C20.4494 23.2033 17.3978 23.159 14.4016 22.0544C13.0827 21.5667 11.9892 21.5224 11.1469 21.9177C10.4301 22.2576 9.89446 22.9226 9.55088 23.8979C8.11261 27.9959 6.68075 32.1676 5.28814 36.2251L4.98088 37.1202L3.78389 40.6041C3.28144 42.0707 3.48833 42.7247 4.57819 43.1126C5.7604 43.53 6.11137 42.9463 6.63598 41.5129C7.14211 40.1275 7.6113 38.6978 8.06202 37.316L8.06219 37.3155L8.06223 37.3154C8.33924 36.4659 8.61626 35.6164 8.90435 34.7706L8.97085 34.5711C9.23315 33.7805 9.65801 32.5059 10.9732 32.5059C11.1136 32.5059 11.2651 32.5207 11.4276 32.5502C12.9266 32.8419 12.8649 34.1814 12.8279 34.9833L12.8278 34.9849C12.8265 35.0339 12.8248 35.0825 12.8231 35.1305C12.8199 35.2199 12.8167 35.3071 12.8167 35.3912C12.8291 38.8423 12.8285 42.3423 12.828 45.771L12.8278 47.8082V51.9977C12.8278 53.6047 12.8278 55.2155 12.8241 56.8226L12.823 57.9469C12.8193 61.4555 12.8156 65.0566 12.8389 68.6004C12.8463 69.7272 13.1455 70.5436 13.7108 70.9685C14.3721 71.4635 15.3031 71.3453 15.9681 71.1569C17.1983 70.8096 17.4163 69.9969 17.4126 68.4194C17.4089 65.9219 17.4089 63.4282 17.4089 60.9308C17.4089 57.506 17.4089 54.085 17.4015 50.6603V50.656C17.4015 49.9628 17.4015 48.3438 19.197 48.3328C21.0052 48.3218 21.0438 49.9786 21.0587 50.6206L21.059 50.6344C21.0645 50.8782 21.0638 51.122 21.0631 51.3658L21.0629 51.4529L21.0627 51.6097V52.0272C21.0627 53.5825 21.0627 55.1379 21.0664 56.6932C21.0738 60.6056 21.0775 64.6547 21.0479 68.6373C21.0331 70.4033 21.7018 71.1939 23.2867 71.2899C24.0293 71.3342 24.5576 71.2012 24.9012 70.8835C25.3297 70.4845 25.5477 69.7309 25.5625 68.5856C25.5773 67.2593 25.5736 65.9071 25.5699 64.5993C25.5699 64.3065 25.569 64.0128 25.568 63.7187L25.568 63.7173V63.7168C25.5671 63.4214 25.5662 63.1256 25.5662 62.8297V56.6969C25.5662 49.7477 25.5662 42.7948 25.5699 35.8456C25.5699 35.7053 25.5662 35.5575 25.5625 35.4097C25.5329 34.3937 25.4886 32.8605 27.0513 32.5428C28.7997 32.185 29.2186 33.6944 29.47 34.6L29.4712 34.6043L29.4772 34.6257C29.5378 34.8395 29.5952 35.0423 29.6596 35.2139C30.5758 37.6079 31.2741 39.6029 31.8615 41.487C32.3602 43.0867 32.7629 43.4192 33.8343 43.1015ZM52.4468 53.9335C52.831 54.8608 52.9825 54.9458 53.3852 54.7943C53.7324 54.665 53.9135 54.5431 53.5736 53.5567L53.3593 52.9471C52.7313 51.1701 52.0847 49.334 51.4715 47.5163L51.4661 47.5005C50.6348 45.0358 50.2212 43.8097 49.4802 43.2714C48.7376 42.7321 47.4519 42.7247 44.9028 42.732L43.776 42.7357C42.8413 42.7394 41.9066 42.7394 40.9719 42.7283C40.2109 42.721 40.052 42.8059 39.9596 43.0719C38.8144 46.36 37.6137 49.8807 36.1803 54.1515C36.1248 54.314 36.1211 54.4471 36.1729 54.5394C36.2357 54.6539 36.4019 54.7574 36.6273 54.8128C36.8342 54.8682 37.1223 54.9384 37.3292 54.2993C37.4918 53.7857 37.6765 53.2759 37.8575 52.7809L37.899 52.6666L37.8991 52.6665L37.8991 52.6664C38.0672 52.2037 38.2394 51.7297 38.3895 51.2588C39.121 48.9571 40.2515 49.2786 40.7318 49.4153C41.2194 49.552 41.5667 49.8105 41.7588 50.18C42.1053 50.8434 41.8267 51.6539 41.6236 52.2446L41.6221 52.2489L40.8574 54.4618C40.1 56.6526 39.3205 58.9136 38.5669 61.145C38.544 61.2137 38.5158 61.2859 38.4872 61.3592L38.4872 61.3594L38.487 61.3597C38.4741 61.3927 38.4612 61.4259 38.4486 61.4591L38.439 61.484C38.3705 61.6625 38.254 61.9661 38.2787 62.0613C38.2793 62.0613 38.2804 62.0617 38.282 62.0625C38.2838 62.0633 38.2861 62.0646 38.289 62.0662C38.3167 62.0812 38.4022 62.1274 38.6038 62.161C41.8032 62.6819 41.9509 65.1498 41.781 66.9601C41.7226 67.5627 41.7363 68.169 41.7509 68.8111V68.8112L41.7514 68.8331C41.7662 69.343 41.7773 69.8713 41.7514 70.3959C41.7293 70.8503 41.7921 71.1606 41.9436 71.3232C42.0581 71.4488 42.2613 71.5153 42.5494 71.5227C42.7896 71.53 42.9595 71.4894 43.0519 71.4007C43.2514 71.2123 43.2588 70.6656 43.2625 70.3072C43.2748 69.3765 43.2743 68.4304 43.2738 67.5054L43.2735 66.9564V65.2347C43.2772 64.3444 43.4767 63.7201 43.8905 63.3174C44.2119 63.007 44.6294 62.8592 45.1429 62.8703C46.5874 62.9073 46.6207 64.2779 46.6355 64.9392C46.6355 65.0316 46.6392 65.1202 46.6429 65.2015C46.7094 66.4244 46.702 67.662 46.6946 68.859C46.6909 69.4169 46.6872 69.9784 46.6909 70.5363C46.6946 71.4451 47.0529 71.519 47.4482 71.519C47.7032 71.519 47.8842 71.4635 47.9913 71.3564C48.128 71.2197 48.1982 70.9463 48.1945 70.5621C48.1908 69.9969 48.1982 69.4279 48.2056 68.8627L48.2082 68.6295C48.219 67.6784 48.2301 66.6975 48.1686 65.7483C48.0541 63.9195 48.8263 62.8186 50.4629 62.4676C50.8102 62.3937 51.2498 62.2534 51.3754 62.0206C51.5306 61.7361 51.3274 61.1155 51.1316 60.6093C50.3162 58.4851 49.6131 56.2849 48.9326 54.1555L48.9326 54.1555L48.9326 54.1554L48.9112 54.0887L48.7625 53.6249C48.557 52.9841 48.3511 52.3419 48.1428 51.7021C48.0061 51.2846 47.8583 50.6714 48.1465 50.1246C48.3386 49.7588 48.6859 49.5002 49.1809 49.3561C49.857 49.1566 50.7584 49.2047 51.2018 50.5494C51.6082 51.7834 52.0145 52.888 52.4468 53.9335ZM56.4331 51.3068L56.6584 51.9422C57.1572 50.579 57.7224 49.1308 58.3135 47.6235C59.5992 44.3169 60.9994 40.7149 61.7974 37.7298C61.1119 39.1137 60.3408 40.6118 59.7125 41.8324L59.4625 42.3183L59.1374 42.9463C58.284 44.6051 57.1941 46.1568 55.0107 46.3082C54.8555 46.3193 54.7706 46.3415 54.7262 46.3563C54.7299 46.3969 54.741 46.4708 54.7817 46.5853C55.1952 47.7823 55.6157 48.9793 56.0647 50.2577L56.4331 51.3068ZM89.3762 42.5363C89.7752 42.3441 90.019 42.1335 90.0966 41.9008C90.2407 41.4796 89.9119 40.8405 89.5757 40.2309L89.4612 40.0056C86.8566 34.8814 84.2557 29.7572 81.6623 24.6257C80.1919 21.7108 78.8397 21.1049 75.8731 22.0211C73.0284 22.9004 70.3536 22.9004 67.4535 22.0248C64.3909 21.0975 63.0646 21.7108 61.5351 24.7624C60.8842 26.0605 60.2333 27.3576 59.5824 28.6547C58.9329 29.9492 58.2833 31.2437 57.6338 32.5391C57.1265 33.5507 56.6187 34.5623 56.1107 35.5741L56.1094 35.5766L56.1063 35.5828L56.1054 35.5846C55.3425 37.1043 54.5793 38.6244 53.8174 40.146L53.8133 40.1542C53.5184 40.744 53.1495 41.4818 53.3076 41.9488C53.3852 42.1816 53.5957 42.3774 53.9467 42.551C54.8186 42.9833 55.2545 42.7025 55.9823 41.2432C56.6042 39.9903 57.2312 38.7399 57.859 37.4878L58.2359 36.736L58.4325 36.3441L58.4329 36.3433L58.4331 36.343C59.5537 34.1089 60.7064 31.8109 61.8195 29.5393L61.82 29.5384C62.1193 28.9286 62.6773 27.7919 64.0694 27.9728C65.5768 28.1686 65.5841 29.543 65.5878 30.2818L65.5989 31.3791C65.6359 34.5969 65.6728 37.9219 64.2911 41.1582C63.3379 43.386 62.5547 45.7393 61.7974 48.0151L61.7184 48.2519C61.3369 49.3969 60.9449 50.5735 60.5302 51.7243L60.5117 51.7797L60.5093 51.7863C59.9012 53.4855 59.533 54.5142 59.758 54.9791C59.9834 55.4446 60.9957 55.8029 62.6286 56.3571C64.6605 57.0442 65.4179 58.1267 65.3329 60.2251C65.2258 62.8482 65.2738 65.534 65.3218 68.1275L65.3403 69.1878C65.3625 70.5769 66.1272 71.2788 67.6124 71.2788H67.6345C68.3439 71.2751 68.887 71.0978 69.249 70.7542C69.6221 70.3959 69.8106 69.8454 69.8069 69.1139C69.8013 68.2356 69.802 67.3595 69.8027 66.4838C69.8029 66.1918 69.8032 65.8998 69.8032 65.6079V63.5206V59.4234V59.4184C69.8032 58.5927 69.8032 56.8816 71.6208 56.8263H71.7058C72.2193 56.8263 72.6257 56.9703 72.9213 57.2585C73.4459 57.7685 73.4459 58.5554 73.4459 59.1887V59.2018V59.3939C73.468 62.608 73.4606 65.7483 73.4533 68.3935C73.4459 70.3959 74.0924 71.2345 75.6773 71.2899C76.4605 71.3158 77.0147 71.1569 77.3878 70.8059C77.8496 70.37 78.0861 69.5831 78.1119 68.4083C78.1378 67.1374 78.1341 65.8406 78.1267 64.5882L78.1266 64.5773V64.5771V64.5768C78.123 64.0117 78.1193 63.4502 78.1193 62.8851V62.8186C78.1193 57.4913 78.3077 57.2179 83.2139 55.5C83.8272 55.2857 83.9417 55.1453 83.9639 55.0973C83.9897 55.0382 83.9934 54.8608 83.7459 54.314C83.1253 52.9397 82.56 51.3733 82.0206 49.5224C81.5403 47.8747 80.916 46.2159 80.3138 44.6162L80.3044 44.5911C78.7039 40.3282 77.0493 35.9209 77.7462 30.9875C77.7717 30.8054 77.7613 30.5803 77.7504 30.344L77.7499 30.3336C77.7166 29.591 77.6612 28.3534 79.1464 28.0319C80.6943 27.6994 81.2928 28.9482 81.6844 29.7757C81.7132 29.8377 81.7433 29.8984 81.7732 29.9585L81.8074 30.0278L81.8322 30.0787C82.8612 32.1252 83.8836 34.174 84.9061 36.2233L85.3106 37.0339L85.7815 37.9773L87.2852 40.9846C87.3406 41.0954 87.396 41.2099 87.4514 41.3245C88.0647 42.6064 88.3713 43.0128 89.3762 42.5363ZM71.5914 18.7054H71.6209C76.7488 18.7054 80.9826 14.5935 81.0712 9.52841C81.1119 7.13812 80.1181 4.71829 78.3374 2.88585C76.5862 1.08298 74.2439 0.0300681 71.9128 0.000512702C69.3525 -0.0253482 66.9327 0.927804 65.1261 2.70482C63.3454 4.45597 62.359 6.80933 62.3516 9.32523C62.3442 11.7968 63.3048 14.139 65.0633 15.9235C66.8219 17.7116 69.142 18.698 71.5914 18.7054ZM71.5914 3.65799H71.6209C74.8351 3.68015 77.3768 6.15541 77.4101 9.29566C77.4396 12.3879 74.8979 14.9851 71.7428 15.0811C70.3057 15.1255 68.8427 14.5307 67.7344 13.4482C66.5743 12.314 65.913 10.7697 65.9241 9.21439C65.9463 6.34752 68.6949 3.65799 71.5914 3.65799ZM45.2977 38.7204H45.2645C41.7769 38.7019 39.1317 36.1047 39.1132 32.6763C39.1022 31.0988 39.7376 29.5841 40.9013 28.4166C42.0614 27.2529 43.6352 26.5842 45.2238 26.5842H45.2423C48.4564 26.5953 51.2827 29.3661 51.2901 32.5174C51.2938 34.2206 50.6435 35.8092 49.4613 36.9877C48.3382 38.1071 46.8604 38.7204 45.2977 38.7204ZM45.2571 30.0237C44.5403 30.0237 43.8384 30.3266 43.3212 30.8586C42.8003 31.3943 42.5195 32.111 42.5527 32.8315C42.6082 34.1688 43.8052 35.2735 45.2238 35.2882C45.8962 35.2993 46.5723 35.0075 47.0747 34.5013C47.5845 33.9878 47.8653 33.2933 47.8505 32.6024C47.821 31.3168 46.5538 30.0385 45.2866 30.0237H45.2571Z" fill="#4A5A79"/>
</svg>
