<svg width="50" height="50" viewBox="0 0 50 50" fill="none" xmlns="http://www.w3.org/2000/svg">
<path fill-rule="evenodd" clip-rule="evenodd" d="M14.7725 4.54543C13.8683 4.54543 13.0012 4.9046 12.3619 5.54392C11.7226 6.18325 11.3634 7.05036 11.3634 7.9545C11.3634 8.85865 11.7226 9.72576 12.3619 10.3651C12.9827 10.9859 13.8184 11.3426 14.6941 11.3627H21.9403C21.6629 10.637 21.3118 9.8392 20.8776 9.04977C19.4482 6.45075 17.4859 4.54543 14.7725 4.54543ZM6.81798 7.9545C6.81798 9.1447 7.08472 10.3074 7.58509 11.3627H2.27271C1.01753 11.3627 0 12.3802 0 13.6354V24.999C0 26.2542 1.01753 27.2717 2.27271 27.2717H4.54532V47.7277C4.54532 48.9829 5.56285 50.0004 6.81803 50.0004H43.1815C44.4367 50.0004 45.4542 48.9829 45.4542 47.7277V27.2717H47.727C48.9822 27.2717 49.9997 26.2542 49.9997 24.999V13.6354C49.9997 12.3802 48.9822 11.3627 47.727 11.3627H42.4145C42.9149 10.3074 43.1817 9.1447 43.1817 7.9545C43.1817 5.84484 42.3436 3.82158 40.8518 2.32982C39.3601 0.838061 37.3368 0 35.2272 0C29.9861 0 26.8347 3.77647 25.1392 6.85924C25.0919 6.94525 25.0455 7.03121 24.9998 7.11704C24.9542 7.03121 24.9077 6.94525 24.8604 6.85924C23.1649 3.77647 20.0136 0 14.7725 0C12.6628 0 10.6396 0.838061 9.1478 2.32982C7.65604 3.82158 6.81798 5.84484 6.81798 7.9545ZM35.3055 11.3627H28.0593C28.3367 10.637 28.6878 9.8392 29.122 9.04977C30.5515 6.45075 32.5138 4.54543 35.2272 4.54543C36.1313 4.54543 36.9984 4.9046 37.6377 5.54392C38.2771 6.18325 38.6362 7.05036 38.6362 7.9545C38.6362 8.85865 38.2771 9.72576 37.6377 10.3651C37.0169 10.9859 36.1813 11.3426 35.3055 11.3627ZM27.2726 15.909V22.7263H45.4543V15.9081H35.3468C35.307 15.9087 35.2671 15.909 35.2272 15.909H27.2726ZM4.54543 15.9081H14.6528C14.6927 15.9087 14.7326 15.909 14.7725 15.909H22.7272V22.7263H4.54543V15.9081ZM22.7272 27.2717H9.09075V45.455H22.7272V27.2717ZM27.2726 45.455V27.2717H40.9088V45.455H27.2726Z" fill="white"/>
</svg>
